<?xml version="1.0" encoding="utf-8"?>
<!-- Generator: Adobe Illustrator 26.0.2, SVG Export Plug-In . SVG Version: 6.00 Build 0)  -->
<svg version="1.1" id="Layer_1" xmlns="http://www.w3.org/2000/svg" xmlns:xlink="http://www.w3.org/1999/xlink" x="0px" y="0px"
	 viewBox="0 0 720 288" style="enable-background:new 0 0 720 288;" xml:space="preserve">
<style type="text/css">
	.st0{fill:#FFFFFF;}
	.st1{clip-path:url(#SVGID_00000082339910113627424430000004358266302365649577_);fill:#1F77B4;}
	.st2{clip-path:url(#SVGID_00000069364391475604329780000005831125268850071175_);fill:#1F77B4;}
	.st3{clip-path:url(#SVGID_00000041278288899112749110000005032683737673559435_);fill:#1F77B4;}
	.st4{clip-path:url(#SVGID_00000160148158876388447280000005235062021148887968_);fill:#1F77B4;}
	.st5{clip-path:url(#SVGID_00000078024690836596210730000015217378391567669655_);fill:#1F77B4;}
	.st6{clip-path:url(#SVGID_00000146485146766439669730000017586063524823034559_);fill:#1F77B4;}
	.st7{clip-path:url(#SVGID_00000118388355704568014470000011370626331368620928_);fill:#1F77B4;}
	.st8{clip-path:url(#SVGID_00000079475659794751578980000002065563199662820785_);fill:#1F77B4;}
	.st9{clip-path:url(#SVGID_00000142167529556860140780000014711003681781404339_);fill:#1F77B4;}
	.st10{clip-path:url(#SVGID_00000150096769684515311020000008522021217912230333_);fill:#1F77B4;}
	.st11{clip-path:url(#SVGID_00000103254044828273844990000001047136228909453230_);fill:#1F77B4;}
	.st12{clip-path:url(#SVGID_00000136399674546502735150000006731399747648502915_);fill:#1F77B4;}
	.st13{stroke:#000000;stroke-width:0.8;stroke-linejoin:round;}
	.st14{fill:none;stroke:#000000;stroke-width:0.8;stroke-linecap:square;}
</style>
<g id="figure_1">
	<g id="patch_1">
		<path class="st0" d="M0,288h720V0H0V288z"/>
	</g>
	<g id="axes_1">
		<g id="patch_2">
			<path class="st0" d="M90,201.6h558v-167H90V201.6z"/>
		</g>
		<g id="patch_3">
			<g>
				<defs>
					<rect id="SVGID_1_" x="90" y="34.6" width="558" height="167"/>
				</defs>
				<clipPath id="SVGID_00000165927557887469656950000000202088112483796915_">
					<use xlink:href="#SVGID_1_"  style="overflow:visible;"/>
				</clipPath>
				<path style="clip-path:url(#SVGID_00000165927557887469656950000000202088112483796915_);fill:#1F77B4;" d="M115.4,201.6h34.4
					v-10.3h-34.4V201.6z"/>
			</g>
		</g>
		<g id="patch_4">
			<g>
				<defs>
					<rect id="SVGID_00000001662968263249287680000008912314097366851767_" x="90" y="34.6" width="558" height="167"/>
				</defs>
				<clipPath id="SVGID_00000091011408861005899320000015297145159142081975_">
					<use xlink:href="#SVGID_00000001662968263249287680000008912314097366851767_"  style="overflow:visible;"/>
				</clipPath>
				<path style="clip-path:url(#SVGID_00000091011408861005899320000015297145159142081975_);fill:#1F77B4;" d="M158.4,201.6h34.4
					V184h-34.4V201.6z"/>
			</g>
		</g>
		<g id="patch_5">
			<g>
				<defs>
					<rect id="SVGID_00000126287284379817810300000011068236409029459868_" x="90" y="34.6" width="558" height="167"/>
				</defs>
				<clipPath id="SVGID_00000061446202910188873590000012616960690073001621_">
					<use xlink:href="#SVGID_00000126287284379817810300000011068236409029459868_"  style="overflow:visible;"/>
				</clipPath>
				<path style="clip-path:url(#SVGID_00000061446202910188873590000012616960690073001621_);fill:#1F77B4;" d="M201.3,201.6h34.4
					v-21.8h-34.4V201.6z"/>
			</g>
		</g>
		<g id="patch_6">
			<g>
				<defs>
					<rect id="SVGID_00000057120381091575913410000010014805377815217567_" x="90" y="34.6" width="558" height="167"/>
				</defs>
				<clipPath id="SVGID_00000139987288585726965400000007667816886885660577_">
					<use xlink:href="#SVGID_00000057120381091575913410000010014805377815217567_"  style="overflow:visible;"/>
				</clipPath>
				<path style="clip-path:url(#SVGID_00000139987288585726965400000007667816886885660577_);fill:#1F77B4;" d="M244.3,201.6h34.4
					v-27.5h-34.4V201.6z"/>
			</g>
		</g>
		<g id="patch_7">
			<g>
				<defs>
					<rect id="SVGID_00000178166055493284518110000004392673914844199859_" x="90" y="34.6" width="558" height="167"/>
				</defs>
				<clipPath id="SVGID_00000018200612819460488960000006508918612391122602_">
					<use xlink:href="#SVGID_00000178166055493284518110000004392673914844199859_"  style="overflow:visible;"/>
				</clipPath>
				<path style="clip-path:url(#SVGID_00000018200612819460488960000006508918612391122602_);fill:#1F77B4;" d="M287.3,201.6h34.4
					v-29.7h-34.4V201.6z"/>
			</g>
		</g>
		<g id="patch_8">
			<g>
				<defs>
					<rect id="SVGID_00000126286467357284802080000013189757219855685513_" x="90" y="34.6" width="558" height="167"/>
				</defs>
				<clipPath id="SVGID_00000040535624676441946300000017606460854037162406_">
					<use xlink:href="#SVGID_00000126286467357284802080000013189757219855685513_"  style="overflow:visible;"/>
				</clipPath>
				<path style="clip-path:url(#SVGID_00000040535624676441946300000017606460854037162406_);fill:#1F77B4;" d="M330.3,201.6h34.4
					v-50.1h-34.4V201.6z"/>
			</g>
		</g>
		<g id="patch_9">
			<g>
				<defs>
					<rect id="SVGID_00000183934212916937120060000000297971907839571078_" x="90" y="34.6" width="558" height="167"/>
				</defs>
				<clipPath id="SVGID_00000142164131692066192240000008944747463940915616_">
					<use xlink:href="#SVGID_00000183934212916937120060000000297971907839571078_"  style="overflow:visible;"/>
				</clipPath>
				<path style="clip-path:url(#SVGID_00000142164131692066192240000008944747463940915616_);fill:#1F77B4;" d="M373.3,201.6h34.4
					v-50.4h-34.4V201.6z"/>
			</g>
		</g>
		<g id="patch_10">
			<g>
				<defs>
					<rect id="SVGID_00000031891508976696574380000009988117869532993182_" x="90" y="34.6" width="558" height="167"/>
				</defs>
				<clipPath id="SVGID_00000075146939069749602960000014343731785367640766_">
					<use xlink:href="#SVGID_00000031891508976696574380000009988117869532993182_"  style="overflow:visible;"/>
				</clipPath>
				<path style="clip-path:url(#SVGID_00000075146939069749602960000014343731785367640766_);fill:#1F77B4;" d="M416.3,201.6h34.4
					V147h-34.4V201.6z"/>
			</g>
		</g>
		<g id="patch_11">
			<g>
				<defs>
					<rect id="SVGID_00000046329242979985211240000016915506548485568168_" x="90" y="34.6" width="558" height="167"/>
				</defs>
				<clipPath id="SVGID_00000126281879199711739980000012246334760254763414_">
					<use xlink:href="#SVGID_00000046329242979985211240000016915506548485568168_"  style="overflow:visible;"/>
				</clipPath>
				<path style="clip-path:url(#SVGID_00000126281879199711739980000012246334760254763414_);fill:#1F77B4;" d="M459.3,201.6h34.4
					v-89.2h-34.4V201.6z"/>
			</g>
		</g>
		<g id="patch_12">
			<g>
				<defs>
					<rect id="SVGID_00000098913649036480311350000004666604232971460770_" x="90" y="34.6" width="558" height="167"/>
				</defs>
				<clipPath id="SVGID_00000132769130167685345830000002140400355445630910_">
					<use xlink:href="#SVGID_00000098913649036480311350000004666604232971460770_"  style="overflow:visible;"/>
				</clipPath>
				<path style="clip-path:url(#SVGID_00000132769130167685345830000002140400355445630910_);fill:#1F77B4;" d="M502.3,201.6h34.4
					V93.5h-34.4V201.6z"/>
			</g>
		</g>
		<g id="patch_13">
			<g>
				<defs>
					<rect id="SVGID_00000183231907853063596550000006024902725014578610_" x="90" y="34.6" width="558" height="167"/>
				</defs>
				<clipPath id="SVGID_00000015351632419371462080000015670921410222462887_">
					<use xlink:href="#SVGID_00000183231907853063596550000006024902725014578610_"  style="overflow:visible;"/>
				</clipPath>
				<path style="clip-path:url(#SVGID_00000015351632419371462080000015670921410222462887_);fill:#1F77B4;" d="M545.3,201.6h34.4
					V84.1h-34.4V201.6z"/>
			</g>
		</g>
		<g id="patch_14">
			<g>
				<defs>
					<rect id="SVGID_00000134217839751509871920000007646335667560009906_" x="90" y="34.6" width="558" height="167"/>
				</defs>
				<clipPath id="SVGID_00000178183442848618810740000016960959774002595468_">
					<use xlink:href="#SVGID_00000134217839751509871920000007646335667560009906_"  style="overflow:visible;"/>
				</clipPath>
				<path style="clip-path:url(#SVGID_00000178183442848618810740000016960959774002595468_);fill:#1F77B4;" d="M588.2,201.6h34.4
					V42.5h-34.4V201.6z"/>
			</g>
		</g>
		<g id="matplotlib.axis_1">
			<g id="xtick_1">
				<g id="line2d_1">
					<g>
						<g>
							<path id="mcfa4eb060f" class="st13" d="M132.6,201.6v3.5"/>
						</g>
					</g>
				</g>
				<g id="text_1">
					<g transform="translate(135.318697 256.9125)rotate(-90)scale(0.1 -0.1)">
						<g>
							<path id="DejaVuSans-70" d="M9.8,72.9h41.9v-8.3h-32V43.1h28.9v-8.3H19.7V0H9.8V72.9z"/>
						</g>
						<g>
							<path id="DejaVuSans-108" d="M66.9,76h9V0h-9V76z"/>
						</g>
						<g>
							<path id="DejaVuSans-101" d="M141.5,29.6v-4.4h-41.3c0.4-6.2,2.3-10.9,5.6-14.1s8-4.9,13.9-4.9c3.4,0,6.8,0.4,10,1.3
								s6.5,2.1,9.7,3.8V2.8c-3.2-1.4-6.5-2.4-9.9-3.1c-3.4-0.7-6.8-1.1-10.3-1.1c-8.7,0-15.6,2.5-20.7,7.6
								c-5.1,5.1-7.6,12-7.6,20.6c0,8.9,2.4,16,7.2,21.3c4.8,5.3,11.4,7.9,19.6,7.9c7.4,0,13.2-2.4,17.5-7.1
								C139.4,44.2,141.5,37.7,141.5,29.6z M132.5,32.2c-0.1,4.9-1.4,8.8-4.1,11.8c-2.7,2.9-6.2,4.4-10.7,4.4c-5,0-9-1.4-12-4.2
								s-4.7-6.8-5.2-12L132.5,32.2z"/>
						</g>
						<g>
							<path id="DejaVuSans-118" d="M149.8,54.7h9.5l17.1-45.9l17.1,45.9h9.5L182.5,0h-12.2L149.8,54.7z"/>
						</g>
						<g>
							<path id="DejaVuSans-111" d="M236.6,48.4c-4.8,0-8.6-1.9-11.4-5.6c-2.8-3.8-4.2-8.9-4.2-15.5s1.4-11.7,4.2-15.5
								c2.8-3.8,6.6-5.6,11.5-5.6c4.8,0,8.6,1.9,11.4,5.7c2.8,3.8,4.2,8.9,4.2,15.4c0,6.5-1.4,11.6-4.2,15.4
								C245.2,46.5,241.4,48.4,236.6,48.4z M236.6,56c7.8,0,13.9-2.5,18.4-7.6c4.5-5.1,6.7-12.1,6.7-21.1c0-8.9-2.2-16-6.7-21.1
								c-4.5-5.1-10.6-7.6-18.4-7.6c-7.8,0-14,2.5-18.4,7.6c-4.4,5.1-6.7,12.1-6.7,21.1c0,9,2.2,16,6.7,21.1
								C222.6,53.5,228.8,56,236.6,56z"/>
						</g>
						<g>
							<path id="DejaVuSans-108_00000031170705870039236020000015228462933672566184_" d="M276.6,76h9V0h-9V76z"/>
						</g>
						<g>
							<path id="DejaVuSans-97" d="M329.3,27.5c-7.3,0-12.3-0.8-15.1-2.5s-4.2-4.5-4.2-8.5c0-3.2,1.1-5.7,3.2-7.6
								c2.1-1.9,5-2.8,8.6-2.8c5,0,9,1.8,12,5.3c3,3.5,4.5,8.2,4.5,14.1v2H329.3z M347.2,31.2V0h-9v8.3c-2.1-3.3-4.6-5.8-7.7-7.3
								s-6.8-2.4-11.2-2.4c-5.6,0-10,1.6-13.4,4.7c-3.3,3.1-5,7.4-5,12.6c0,6.1,2.1,10.8,6.2,13.9c4.1,3.1,10.3,4.7,18.4,4.7h12.6
								v0.9c0,4.1-1.4,7.3-4.1,9.6s-6.5,3.4-11.5,3.4c-3.1,0-6.2-0.4-9.1-1.1c-3-0.8-5.8-1.9-8.5-3.4v8.3c3.3,1.3,6.5,2.2,9.6,2.8
								c3.1,0.6,6.1,1,9,1c7.9,0,13.8-2.1,17.7-6.2C345.2,45.8,347.2,39.5,347.2,31.2z"/>
						</g>
						<g>
							<path id="DejaVuSans-110" d="M411.1,33V0h-9v32.7c0,5.2-1,9-3,11.6c-2,2.6-5,3.9-9.1,3.9c-4.9,0-8.7-1.5-11.5-4.6
								c-2.8-3.1-4.2-7.3-4.2-12.6V0h-9v54.7h9v-8.5c2.2,3.3,4.7,5.8,7.6,7.4c2.9,1.6,6.3,2.4,10.1,2.4c6.3,0,11-1.9,14.2-5.8
								C409.5,46.3,411.1,40.6,411.1,33z"/>
						</g>
						<g>
							<path id="DejaVuSans-100" d="M465,46.4V76h9V0h-9v8.2c-1.9-3.2-4.3-5.7-7.2-7.2c-2.9-1.6-6.3-2.4-10.4-2.4
								c-6.6,0-12,2.6-16.1,7.9c-4.1,5.3-6.2,12.2-6.2,20.8s2.1,15.5,6.2,20.8c4.2,5.3,9.5,7.9,16.1,7.9c4,0,7.5-0.8,10.4-2.4
								C460.8,52.1,463.1,49.6,465,46.4z M434.4,27.3c0-6.6,1.4-11.8,4.1-15.5s6.5-5.6,11.2-5.6s8.5,1.9,11.2,5.6
								c2.7,3.8,4.1,8.9,4.1,15.5s-1.4,11.8-4.1,15.5c-2.7,3.8-6.5,5.6-11.2,5.6s-8.5-1.9-11.2-5.6S434.4,33.9,434.4,27.3z"/>
						</g>
					</g>
				</g>
			</g>
			<g id="xtick_2">
				<g id="line2d_2">
					<g>
						<g>
							<path id="mcfa4eb060f_00000051341792110692301670000014977588355688190633_" class="st13" d="M175.5,201.6v3.5"/>
						</g>
					</g>
				</g>
				<g id="text_2">
					<g transform="translate(178.307911 249.348438)rotate(-90)scale(0.1 -0.1)">
						<g>
							<path id="DejaVuSans-90" d="M5.6,72.9h57.3v-7.5L16.8,8.3H64V0H4.5v7.5l46.1,57.1h-45V72.9z"/>
						</g>
						<g>
							<path id="DejaVuSans-101_00000157987735728273445370000004734671156583076238_" d="M124.7,29.6v-4.4H83.4
								c0.4-6.2,2.3-10.9,5.6-14.1c3.3-3.2,8-4.9,13.9-4.9c3.4,0,6.8,0.4,10,1.3c3.2,0.8,6.5,2.1,9.7,3.8V2.8
								c-3.2-1.4-6.5-2.4-9.9-3.1c-3.4-0.7-6.8-1.1-10.3-1.1c-8.7,0-15.6,2.5-20.7,7.6c-5.1,5.1-7.6,12-7.6,20.6
								c0,8.9,2.4,16,7.2,21.3c4.8,5.3,11.4,7.9,19.6,7.9c7.4,0,13.2-2.4,17.5-7.1C122.6,44.2,124.7,37.7,124.7,29.6z M115.7,32.2
								c-0.1,4.9-1.4,8.8-4.1,11.8c-2.7,2.9-6.2,4.4-10.7,4.4c-5,0-9-1.4-12-4.2c-3-2.8-4.7-6.8-5.2-12L115.7,32.2z"/>
						</g>
						<g>
							<path id="DejaVuSans-101_00000020368699736236359970000014237340792543916167_" d="M186.2,29.6v-4.4h-41.3
								c0.4-6.2,2.3-10.9,5.6-14.1c3.3-3.2,8-4.9,13.9-4.9c3.4,0,6.8,0.4,10,1.3s6.5,2.1,9.7,3.8V2.8c-3.2-1.4-6.5-2.4-9.9-3.1
								s-6.8-1.1-10.3-1.1c-8.7,0-15.6,2.5-20.7,7.6c-5.1,5.1-7.6,12-7.6,20.6c0,8.9,2.4,16,7.2,21.3c4.8,5.3,11.4,7.9,19.6,7.9
								c7.4,0,13.2-2.4,17.5-7.1C184.1,44.2,186.2,37.7,186.2,29.6z M177.2,32.2c-0.1,4.9-1.4,8.8-4.1,11.8
								c-2.7,2.9-6.2,4.4-10.7,4.4c-5,0-9-1.4-12-4.2c-3-2.8-4.7-6.8-5.2-12L177.2,32.2z"/>
						</g>
						<g>
							<path id="DejaVuSans-108_00000144308365490437253140000006000903479487862404_" d="M201,76h9V0h-9V76z"/>
						</g>
						<g>
							<path id="DejaVuSans-97_00000058569730055615321820000013267051321686086583_" d="M253.6,27.5c-7.3,0-12.3-0.8-15.1-2.5
								s-4.2-4.5-4.2-8.5c0-3.2,1.1-5.7,3.2-7.6c2.1-1.9,5-2.8,8.6-2.8c5,0,9,1.8,12,5.3c3,3.5,4.5,8.2,4.5,14.1v2H253.6z
								 M271.5,31.2V0h-9v8.3c-2.1-3.3-4.6-5.8-7.7-7.3s-6.8-2.4-11.2-2.4c-5.6,0-10,1.6-13.4,4.7c-3.3,3.1-5,7.4-5,12.6
								c0,6.1,2.1,10.8,6.2,13.9c4.1,3.1,10.3,4.7,18.4,4.7h12.6v0.9c0,4.1-1.4,7.3-4.1,9.6s-6.5,3.4-11.5,3.4
								c-3.1,0-6.2-0.4-9.1-1.1c-3-0.8-5.8-1.9-8.5-3.4v8.3c3.3,1.3,6.5,2.2,9.6,2.8c3.1,0.6,6.1,1,9,1c7.9,0,13.8-2.1,17.7-6.2
								C269.6,45.8,271.5,39.5,271.5,31.2z"/>
						</g>
						<g>
							<path id="DejaVuSans-110_00000060739845177776204980000007506745745049855371_" d="M335.5,33V0h-9v32.7c0,5.2-1,9-3,11.6
								c-2,2.6-5,3.9-9.1,3.9c-4.9,0-8.7-1.5-11.5-4.6c-2.8-3.1-4.2-7.3-4.2-12.6V0h-9v54.7h9v-8.5c2.2,3.3,4.7,5.8,7.6,7.4
								c2.9,1.6,6.3,2.4,10.1,2.4c6.3,0,11-1.9,14.2-5.8C333.9,46.3,335.5,40.6,335.5,33z"/>
						</g>
						<g>
							<path id="DejaVuSans-100_00000098905424384144419450000002006942075796288692_" d="M389.4,46.4V76h9V0h-9v8.2
								c-1.9-3.2-4.3-5.7-7.2-7.2c-2.9-1.6-6.3-2.4-10.4-2.4c-6.6,0-12,2.6-16.1,7.9c-4.1,5.3-6.2,12.2-6.2,20.8s2.1,15.5,6.2,20.8
								c4.2,5.3,9.5,7.9,16.1,7.9c4,0,7.5-0.8,10.4-2.4C385.1,52.1,387.5,49.6,389.4,46.4z M358.8,27.3c0-6.6,1.4-11.8,4.1-15.5
								s6.5-5.6,11.2-5.6s8.5,1.9,11.2,5.6c2.7,3.8,4.1,8.9,4.1,15.5s-1.4,11.8-4.1,15.5c-2.7,3.8-6.5,5.6-11.2,5.6
								s-8.5-1.9-11.2-5.6S358.8,33.9,358.8,27.3z"/>
						</g>
					</g>
				</g>
			</g>
			<g id="xtick_3">
				<g id="line2d_3">
					<g>
						<g>
							<path id="mcfa4eb060f_00000013885490304886212980000002071997247114106252_" class="st13" d="M218.5,201.6v3.5"/>
						</g>
					</g>
				</g>
				<g id="text_3">
					<g transform="translate(221.297125 249.0875)rotate(-90)scale(0.1 -0.1)">
						<g>
							<path id="DejaVuSans-68" d="M19.7,64.8V8.1h11.9c10.1,0,17.4,2.3,22.1,6.8c4.7,4.6,7,11.8,7,21.6c0,9.8-2.3,16.9-7,21.5
								s-12,6.8-22.1,6.8H19.7z M9.8,72.9h20.3c14.1,0,24.5-2.9,31.1-8.8c6.6-5.9,9.9-15.1,9.9-27.6c0-12.6-3.3-21.8-10-27.7
								c-6.6-5.9-17-8.8-31-8.8H9.8V72.9z"/>
						</g>
						<g>
							<path id="DejaVuSans-114" d="M118.1,46.3c-1,0.6-2.1,1-3.3,1.3c-1.2,0.3-2.5,0.4-3.9,0.4c-5.1,0-9-1.7-11.7-5
								s-4.1-8-4.1-14.2V0h-9v54.7h9v-8.5c1.9,3.3,4.4,5.8,7.4,7.4c3,1.6,6.7,2.4,11,2.4c0.6,0,1.3,0,2-0.1c0.8-0.1,1.6-0.2,2.5-0.4
								L118.1,46.3z"/>
						</g>
						<g>
							<path id="DejaVuSans-101_00000055664896655552661240000001140988610874463388_" d="M172.1,29.6v-4.4h-41.3
								c0.4-6.2,2.3-10.9,5.6-14.1c3.3-3.2,8-4.9,13.9-4.9c3.4,0,6.8,0.4,10,1.3s6.5,2.1,9.7,3.8V2.8c-3.2-1.4-6.5-2.4-9.9-3.1
								s-6.8-1.1-10.3-1.1c-8.7,0-15.6,2.5-20.7,7.6c-5.1,5.1-7.6,12-7.6,20.6c0,8.9,2.4,16,7.2,21.3c4.8,5.3,11.4,7.9,19.6,7.9
								c7.4,0,13.2-2.4,17.5-7.1C169.9,44.2,172.1,37.7,172.1,29.6z M163.1,32.2c-0.1,4.9-1.4,8.8-4.1,11.8
								c-2.7,2.9-6.2,4.4-10.7,4.4c-5,0-9-1.4-12-4.2c-3-2.8-4.7-6.8-5.2-12L163.1,32.2z"/>
						</g>
						<g>
							<path id="DejaVuSans-110_00000116938257206120599910000008650140276065674681_" d="M232.3,33V0h-9v32.7c0,5.2-1,9-3,11.6
								c-2,2.6-5,3.9-9.1,3.9c-4.9,0-8.7-1.5-11.5-4.6c-2.8-3.1-4.2-7.3-4.2-12.6V0h-9v54.7h9v-8.5c2.2,3.3,4.7,5.8,7.6,7.4
								c2.9,1.6,6.3,2.4,10.1,2.4c6.3,0,11-1.9,14.2-5.8C230.7,46.3,232.3,40.6,232.3,33z"/>
						</g>
						<g>
							<path id="DejaVuSans-116" d="M259.1,70.2V54.7h18.5v-7h-18.5V18c0-4.5,0.6-7.3,1.8-8.6s3.7-1.9,7.5-1.9h9.2V0h-9.2
								c-6.9,0-11.7,1.3-14.4,3.9c-2.6,2.6-4,7.3-4,14.1v29.7h-6.6v7h6.6v15.5H259.1z"/>
						</g>
						<g>
							<path id="DejaVuSans-104" d="M334.9,33V0h-9v32.7c0,5.2-1,9-3,11.6c-2,2.6-5,3.9-9.1,3.9c-4.9,0-8.7-1.5-11.5-4.6
								c-2.8-3.1-4.2-7.3-4.2-12.6V0h-9v76h9V46.2c2.2,3.3,4.7,5.8,7.6,7.4c2.9,1.6,6.3,2.4,10.1,2.4c6.3,0,11-1.9,14.2-5.8
								C333.3,46.3,334.9,40.6,334.9,33z"/>
						</g>
						<g>
							<path id="DejaVuSans-101_00000026859815240691580510000013623127230858867865_" d="M399.6,29.6v-4.4h-41.3
								c0.4-6.2,2.3-10.9,5.6-14.1c3.3-3.2,8-4.9,13.9-4.9c3.4,0,6.8,0.4,10,1.3c3.2,0.8,6.5,2.1,9.7,3.8V2.8
								c-3.2-1.4-6.5-2.4-9.9-3.1c-3.4-0.7-6.8-1.1-10.3-1.1c-8.7,0-15.6,2.5-20.7,7.6c-5.1,5.1-7.6,12-7.6,20.6
								c0,8.9,2.4,16,7.2,21.3c4.8,5.3,11.4,7.9,19.6,7.9c7.4,0,13.2-2.4,17.5-7.1C397.4,44.2,399.6,37.7,399.6,29.6z M390.6,32.2
								c-0.1,4.9-1.4,8.8-4.1,11.8c-2.7,2.9-6.2,4.4-10.7,4.4c-5,0-9-1.4-12-4.2c-3-2.8-4.7-6.8-5.2-12L390.6,32.2z"/>
						</g>
					</g>
				</g>
			</g>
			<g id="xtick_4">
				<g id="line2d_4">
					<g>
						<g>
							<path id="mcfa4eb060f_00000160188472749380657850000015768533231788884624_" class="st13" d="M261.5,201.6v3.5"/>
						</g>
					</g>
				</g>
				<g id="text_4">
					<g transform="translate(264.28634 260.645313)rotate(-90)scale(0.1 -0.1)">
						<g>
							<path id="DejaVuSans-71" d="M59.5,10.4V30H43.4v8.1h25.9V6.8c-3.8-2.7-8-4.7-12.6-6.1C52.1-0.7,47.2-1.4,42-1.4
								c-11.4,0-20.3,3.3-26.8,10c-6.4,6.7-9.6,15.9-9.6,27.8c0,11.9,3.2,21.2,9.6,27.9c6.4,6.7,15.4,10,26.8,10
								c4.8,0,9.3-0.6,13.5-1.8c4.3-1.2,8.2-2.9,11.8-5.2V56.8c-3.6,3.1-7.5,5.4-11.6,7c-4.1,1.6-8.4,2.3-12.9,2.3
								c-8.9,0-15.6-2.5-20.1-7.5c-4.5-5-6.7-12.4-6.7-22.3c0-9.8,2.2-17.2,6.7-22.2c4.5-5,11.2-7.5,20.1-7.5c3.5,0,6.6,0.3,9.3,0.9
								C54.9,8.2,57.3,9.1,59.5,10.4z"/>
						</g>
						<g>
							<path id="DejaVuSans-114_00000169537271280619705520000008090980100406700433_" d="M118.6,46.3c-1,0.6-2.1,1-3.3,1.3
								c-1.2,0.3-2.5,0.4-3.9,0.4c-5.1,0-9-1.7-11.7-5s-4.1-8-4.1-14.2V0h-9v54.7h9v-8.5c1.9,3.3,4.4,5.8,7.4,7.4
								c3,1.6,6.7,2.4,11,2.4c0.6,0,1.3,0,2-0.1c0.8-0.1,1.6-0.2,2.5-0.4L118.6,46.3z"/>
						</g>
						<g>
							<path id="DejaVuSans-111_00000129199491580595226570000011210015016279575742_" d="M147,48.4c-4.8,0-8.6-1.9-11.4-5.6
								c-2.8-3.8-4.2-8.9-4.2-15.5s1.4-11.7,4.2-15.5c2.8-3.8,6.6-5.6,11.5-5.6c4.8,0,8.6,1.9,11.4,5.7c2.8,3.8,4.2,8.9,4.2,15.4
								c0,6.5-1.4,11.6-4.2,15.4C155.5,46.5,151.8,48.4,147,48.4z M147,56c7.8,0,13.9-2.5,18.4-7.6c4.5-5.1,6.7-12.1,6.7-21.1
								c0-8.9-2.2-16-6.7-21.1c-4.5-5.1-10.6-7.6-18.4-7.6c-7.8,0-14,2.5-18.4,7.6c-4.4,5.1-6.7,12.1-6.7,21.1c0,9,2.2,16,6.7,21.1
								C133,53.5,139.1,56,147,56z"/>
						</g>
						<g>
							<path id="DejaVuSans-110_00000179640615601585223310000014037659965959145611_" d="M232.4,33V0h-9v32.7c0,5.2-1,9-3,11.6
								c-2,2.6-5,3.9-9.1,3.9c-4.9,0-8.7-1.5-11.5-4.6c-2.8-3.1-4.2-7.3-4.2-12.6V0h-9v54.7h9v-8.5c2.2,3.3,4.7,5.8,7.6,7.4
								c2.9,1.6,6.3,2.4,10.1,2.4c6.3,0,11-1.9,14.2-5.8C230.8,46.3,232.4,40.6,232.4,33z"/>
						</g>
						<g>
							<path id="DejaVuSans-105" d="M250.3,54.7h9V0h-9V54.7z M250.3,76h9V64.6h-9V76z"/>
						</g>
						<g>
							<path id="DejaVuSans-110_00000140003445406332894630000011591399093083780498_" d="M323.6,33V0h-9v32.7c0,5.2-1,9-3,11.6
								c-2,2.6-5,3.9-9.1,3.9c-4.9,0-8.7-1.5-11.5-4.6c-2.8-3.1-4.2-7.3-4.2-12.6V0h-9v54.7h9v-8.5c2.2,3.3,4.7,5.8,7.6,7.4
								c2.9,1.6,6.3,2.4,10.1,2.4c6.3,0,11-1.9,14.2-5.8C322,46.3,323.6,40.6,323.6,33z"/>
						</g>
						<g>
							<path id="DejaVuSans-103" d="M377.5,28c0,6.5-1.3,11.6-4,15.1c-2.7,3.6-6.4,5.4-11.3,5.4c-4.8,0-8.6-1.8-11.2-5.4
								c-2.7-3.6-4-8.6-4-15.1c0-6.5,1.3-11.5,4-15.1s6.4-5.4,11.2-5.4c4.9,0,8.6,1.8,11.3,5.4C376.1,16.5,377.5,21.5,377.5,28z
								 M386.5,6.8c0-9.3-2.1-16.2-6.2-20.8c-4.1-4.5-10.5-6.8-19-6.8c-3.2,0-6.1,0.2-8.9,0.7c-2.8,0.5-5.5,1.2-8.2,2.2v8.7
								c2.6-1.4,5.2-2.5,7.8-3.2c2.6-0.7,5.2-1,7.9-1c5.9,0,10.3,1.5,13.2,4.6c2.9,3.1,4.4,7.7,4.4,13.9v4.5
								c-1.9-3.2-4.2-5.6-7.1-7.2C367.5,0.8,364,0,360,0c-6.7,0-12.1,2.6-16.2,7.7c-4.1,5.1-6.2,11.9-6.2,20.3
								c0,8.5,2.1,15.2,6.2,20.3c4.1,5.1,9.5,7.7,16.2,7.7c4,0,7.5-0.8,10.4-2.4c2.9-1.6,5.3-4,7.1-7.2v8.3h9V6.8z"/>
						</g>
						<g>
							<path id="DejaVuSans-101_00000061453154773350389930000002844367841761403538_" d="M451.8,29.6v-4.4h-41.3
								c0.4-6.2,2.3-10.9,5.6-14.1c3.3-3.2,8-4.9,13.9-4.9c3.4,0,6.8,0.4,10,1.3c3.2,0.8,6.5,2.1,9.7,3.8V2.8
								c-3.2-1.4-6.5-2.4-9.9-3.1c-3.4-0.7-6.8-1.1-10.3-1.1c-8.7,0-15.6,2.5-20.7,7.6c-5.1,5.1-7.6,12-7.6,20.6
								c0,8.9,2.4,16,7.2,21.3c4.8,5.3,11.4,7.9,19.6,7.9c7.4,0,13.2-2.4,17.5-7.1C449.6,44.2,451.8,37.7,451.8,29.6z M442.8,32.2
								c-0.1,4.9-1.4,8.8-4.1,11.8c-2.7,2.9-6.2,4.4-10.7,4.4c-5,0-9-1.4-12-4.2c-3-2.8-4.7-6.8-5.2-12L442.8,32.2z"/>
						</g>
						<g>
							<path id="DejaVuSans-110_00000168832624378820754100000015986510504512351117_" d="M512,33V0h-9v32.7c0,5.2-1,9-3,11.6
								c-2,2.6-5,3.9-9.1,3.9c-4.9,0-8.7-1.5-11.5-4.6c-2.8-3.1-4.2-7.3-4.2-12.6V0h-9v54.7h9v-8.5c2.2,3.3,4.7,5.8,7.6,7.4
								c2.9,1.6,6.3,2.4,10.1,2.4c6.3,0,11-1.9,14.2-5.8C510.4,46.3,512,40.6,512,33z"/>
						</g>
					</g>
				</g>
			</g>
			<g id="xtick_5">
				<g id="line2d_5">
					<g>
						<g>
							<path id="mcfa4eb060f_00000122679792228917431870000016373018976582541718_" class="st13" d="M304.5,201.6v3.5"/>
						</g>
					</g>
				</g>
				<g id="text_5">
					<g transform="translate(307.275554 253.470313)rotate(-90)scale(0.1 -0.1)">
						<g>
							<path id="DejaVuSans-70_00000033335726357131332120000010344557985123221413_" d="M9.8,72.9h41.9v-8.3h-32V43.1h28.9v-8.3
								H19.7V0H9.8V72.9z"/>
						</g>
						<g>
							<path id="DejaVuSans-114_00000003072955740861013410000011711231391441352618_" d="M91.4,46.3c-1,0.6-2.1,1-3.3,1.3
								c-1.2,0.3-2.5,0.4-3.9,0.4c-5.1,0-9-1.7-11.7-5s-4.1-8-4.1-14.2V0h-9v54.7h9v-8.5c1.9,3.3,4.4,5.8,7.4,7.4
								c3,1.6,6.7,2.4,11,2.4c0.6,0,1.3,0,2-0.1c0.8-0.1,1.6-0.2,2.5-0.4L91.4,46.3z"/>
						</g>
						<g>
							<path id="DejaVuSans-105_00000025401207718682175660000012106856463149762470_" d="M100.8,54.7h9V0h-9V54.7z M100.8,76h9
								V64.6h-9V76z"/>
						</g>
						<g>
							<path id="DejaVuSans-101_00000039117437374059096420000018133943889561765567_" d="M175.4,29.6v-4.4h-41.3
								c0.4-6.2,2.3-10.9,5.6-14.1c3.3-3.2,8-4.9,13.9-4.9c3.4,0,6.8,0.4,10,1.3s6.5,2.1,9.7,3.8V2.8c-3.2-1.4-6.5-2.4-9.9-3.1
								s-6.8-1.1-10.3-1.1c-8.7,0-15.6,2.5-20.7,7.6c-5.1,5.1-7.6,12-7.6,20.6c0,8.9,2.4,16,7.2,21.3c4.8,5.3,11.4,7.9,19.6,7.9
								c7.4,0,13.2-2.4,17.5-7.1C173.2,44.2,175.4,37.7,175.4,29.6z M166.4,32.2c-0.1,4.9-1.4,8.8-4.1,11.8
								c-2.7,2.9-6.2,4.4-10.7,4.4c-5,0-9-1.4-12-4.2s-4.7-6.8-5.2-12L166.4,32.2z"/>
						</g>
						<g>
							<path id="DejaVuSans-115" d="M225,53.1v-8.5c-2.5,1.3-5.2,2.3-7.9,2.9c-2.7,0.7-5.6,1-8.5,1c-4.5,0-7.8-0.7-10-2
								s-3.3-3.4-3.3-6.2c0-2.1,0.8-3.7,2.4-4.9s4.8-2.3,9.6-3.4l3.1-0.7c6.4-1.4,10.9-3.3,13.6-5.8s4-6,4-10.4c0-5.1-2-9.1-6-12.1
								c-4-3-9.5-4.4-16.6-4.4c-2.9,0-6,0.3-9.2,0.9s-6.5,1.4-10,2.6v9.3c3.3-1.7,6.6-3,9.8-3.9c3.2-0.9,6.4-1.3,9.6-1.3
								c4.2,0,7.5,0.7,9.8,2.2c2.3,1.4,3.4,3.5,3.4,6.1c0,2.4-0.8,4.3-2.5,5.6c-1.6,1.3-5.2,2.6-10.8,3.8l-3.1,0.7
								c-5.6,1.2-9.6,3-12.1,5.4c-2.5,2.4-3.7,5.8-3.7,10c0,5.1,1.8,9.1,5.5,11.9c3.6,2.8,8.8,4.2,15.5,4.2c3.3,0,6.4-0.2,9.4-0.7
								C219.8,54.8,222.5,54.1,225,53.1z"/>
						</g>
						<g>
							<path id="DejaVuSans-108_00000084504272700881918430000011750094945117102256_" d="M242.2,76h9V0h-9V76z"/>
						</g>
						<g>
							<path id="DejaVuSans-97_00000039131026880606485760000007201357678554318776_" d="M294.9,27.5c-7.3,0-12.3-0.8-15.1-2.5
								s-4.2-4.5-4.2-8.5c0-3.2,1.1-5.7,3.2-7.6c2.1-1.9,5-2.8,8.6-2.8c5,0,9,1.8,12,5.3s4.5,8.2,4.5,14.1v2H294.9z M312.8,31.2V0
								h-9v8.3c-2.1-3.3-4.6-5.8-7.7-7.3s-6.8-2.4-11.2-2.4c-5.6,0-10,1.6-13.4,4.7c-3.3,3.1-5,7.4-5,12.6c0,6.1,2.1,10.8,6.2,13.9
								c4.1,3.1,10.3,4.7,18.4,4.7h12.6v0.9c0,4.1-1.4,7.3-4.1,9.6s-6.5,3.4-11.5,3.4c-3.1,0-6.2-0.4-9.1-1.1
								c-3-0.8-5.8-1.9-8.5-3.4v8.3c3.3,1.3,6.5,2.2,9.6,2.8c3.1,0.6,6.1,1,9,1c7.9,0,13.8-2.1,17.7-6.2
								C310.8,45.8,312.8,39.5,312.8,31.2z"/>
						</g>
						<g>
							<path id="DejaVuSans-110_00000003065731145564964540000011724802469638863500_" d="M376.7,33V0h-9v32.7c0,5.2-1,9-3,11.6
								c-2,2.6-5,3.9-9.1,3.9c-4.9,0-8.7-1.5-11.5-4.6c-2.8-3.1-4.2-7.3-4.2-12.6V0h-9v54.7h9v-8.5c2.2,3.3,4.7,5.8,7.6,7.4
								c2.9,1.6,6.3,2.4,10.1,2.4c6.3,0,11-1.9,14.2-5.8C375.1,46.3,376.7,40.6,376.7,33z"/>
						</g>
						<g>
							<path id="DejaVuSans-100_00000133503684844436763940000012350228628988887715_" d="M430.6,46.4V76h9V0h-9v8.2
								c-1.9-3.2-4.3-5.7-7.2-7.2c-2.9-1.6-6.3-2.4-10.4-2.4c-6.6,0-12,2.6-16.1,7.9c-4.1,5.3-6.2,12.2-6.2,20.8s2.1,15.5,6.2,20.8
								c4.2,5.3,9.5,7.9,16.1,7.9c4,0,7.5-0.8,10.4-2.4C426.4,52.1,428.8,49.6,430.6,46.4z M400,27.3c0-6.6,1.4-11.8,4.1-15.5
								s6.5-5.6,11.2-5.6s8.5,1.9,11.2,5.6c2.7,3.8,4.1,8.9,4.1,15.5s-1.4,11.8-4.1,15.5c-2.7,3.8-6.5,5.6-11.2,5.6
								s-8.5-1.9-11.2-5.6S400,33.9,400,27.3z"/>
						</g>
					</g>
				</g>
			</g>
			<g id="xtick_6">
				<g id="line2d_6">
					<g>
						<g>
							<path id="mcfa4eb060f_00000123401847384408443380000012060416169093896620_" class="st13" d="M347.5,201.6v3.5"/>
						</g>
					</g>
				</g>
				<g id="text_6">
					<g transform="translate(350.264768 245.634375)rotate(-90)scale(0.1 -0.1)">
						<g>
							<path id="DejaVuSans-85" d="M8.7,72.9h9.9V28.6c0-7.8,1.4-13.4,4.2-16.9c2.8-3.4,7.4-5.1,13.8-5.1c6.3,0,10.9,1.7,13.7,5.1
								c2.8,3.4,4.2,9.1,4.2,16.9v44.3h9.9V27.4c0-9.5-2.4-16.7-7.1-21.5C52.7,1,45.8-1.4,36.6-1.4c-9.2,0-16.2,2.4-20.9,7.3
								c-4.7,4.9-7,12-7,21.5V72.9z"/>
						</g>
						<g>
							<path id="DejaVuSans-116_00000153670502787249877790000000468704966809096854_" d="M91.5,70.2V54.7H110v-7H91.5V18
								c0-4.5,0.6-7.3,1.8-8.6s3.7-1.9,7.5-1.9h9.2V0h-9.2c-6.9,0-11.7,1.3-14.4,3.9c-2.6,2.6-4,7.3-4,14.1v29.7h-6.6v7h6.6v15.5
								H91.5z"/>
						</g>
						<g>
							<path id="DejaVuSans-114_00000114064680803716903940000001788966741852835504_" d="M153.5,46.3c-1,0.6-2.1,1-3.3,1.3
								c-1.2,0.3-2.5,0.4-3.9,0.4c-5.1,0-9-1.7-11.7-5s-4.1-8-4.1-14.2V0h-9v54.7h9v-8.5c1.9,3.3,4.4,5.8,7.4,7.4
								c3,1.6,6.7,2.4,11,2.4c0.6,0,1.3,0,2-0.1c0.8-0.1,1.6-0.2,2.5-0.4L153.5,46.3z"/>
						</g>
						<g>
							<path id="DejaVuSans-101_00000042727316619222808360000016031398102981378704_" d="M207.5,29.6v-4.4h-41.3
								c0.4-6.2,2.3-10.9,5.6-14.1c3.3-3.2,8-4.9,13.9-4.9c3.4,0,6.8,0.4,10,1.3c3.2,0.8,6.5,2.1,9.7,3.8V2.8
								c-3.2-1.4-6.5-2.4-9.9-3.1c-3.4-0.7-6.8-1.1-10.3-1.1c-8.7,0-15.6,2.5-20.7,7.6c-5.1,5.1-7.6,12-7.6,20.6
								c0,8.9,2.4,16,7.2,21.3c4.8,5.3,11.4,7.9,19.6,7.9c7.4,0,13.2-2.4,17.5-7.1C205.3,44.2,207.5,37.7,207.5,29.6z M198.5,32.2
								c-0.1,4.9-1.4,8.8-4.1,11.8c-2.7,2.9-6.2,4.4-10.7,4.4c-5,0-9-1.4-12-4.2c-3-2.8-4.7-6.8-5.2-12L198.5,32.2z"/>
						</g>
						<g>
							<path id="DejaVuSans-99" d="M261.6,52.6v-8.4c-2.5,1.4-5.1,2.5-7.6,3.2c-2.6,0.7-5.1,1-7.7,1c-5.8,0-10.4-1.8-13.6-5.5
								c-3.2-3.7-4.8-8.9-4.8-15.5s1.6-11.9,4.8-15.6c3.2-3.7,7.8-5.5,13.6-5.5c2.6,0,5.2,0.3,7.7,1c2.6,0.7,5.1,1.7,7.6,3.2V2.1
								c-2.5-1.2-5.1-2-7.8-2.6c-2.7-0.6-5.5-0.9-8.6-0.9c-8.2,0-14.8,2.6-19.6,7.8c-4.8,5.2-7.3,12.2-7.3,21c0,8.9,2.4,15.9,7.3,21
								c4.9,5.1,11.6,7.7,20.2,7.7c2.8,0,5.5-0.3,8.1-0.9C256.5,54.6,259.1,53.7,261.6,52.6z"/>
						</g>
						<g>
							<path id="DejaVuSans-104_00000157267562217633284640000001844938685705948090_" d="M322.7,33V0h-9v32.7c0,5.2-1,9-3,11.6
								c-2,2.6-5,3.9-9.1,3.9c-4.9,0-8.7-1.5-11.5-4.6c-2.8-3.1-4.2-7.3-4.2-12.6V0h-9v76h9V46.2c2.2,3.3,4.7,5.8,7.6,7.4
								c2.9,1.6,6.3,2.4,10.1,2.4c6.3,0,11-1.9,14.2-5.8C321,46.3,322.7,40.6,322.7,33z"/>
						</g>
						<g>
							<path id="DejaVuSans-116_00000159443040929048864400000006992986595938238608_" d="M349.5,70.2V54.7H368v-7h-18.5V18
								c0-4.5,0.6-7.3,1.8-8.6s3.7-1.9,7.5-1.9h9.2V0h-9.2c-6.9,0-11.7,1.3-14.4,3.9c-2.6,2.6-4,7.3-4,14.1v29.7h-6.6v7h6.6v15.5
								H349.5z"/>
						</g>
					</g>
				</g>
			</g>
			<g id="xtick_7">
				<g id="line2d_7">
					<g>
						<g>
							<path id="mcfa4eb060f_00000087397234307326254750000013108408758534920887_" class="st13" d="M390.5,201.6v3.5"/>
						</g>
					</g>
				</g>
				<g id="text_7">
					<g transform="translate(393.253982 257.560938)rotate(-90)scale(0.1 -0.1)">
						<g>
							<path id="DejaVuSans-79" d="M39.4,66.2c-7.2,0-12.9-2.7-17.1-8C18.1,52.9,16,45.6,16,36.4c0-9.2,2.1-16.4,6.3-21.8
								c4.2-5.3,9.9-8,17.1-8c7.2,0,12.8,2.7,17,8c4.2,5.3,6.3,12.6,6.3,21.8c0,9.2-2.1,16.5-6.3,21.8
								C52.2,63.5,46.6,66.2,39.4,66.2z M39.4,74.2c10.2,0,18.4-3.4,24.5-10.3c6.1-6.9,9.2-16,9.2-27.6c0-11.5-3.1-20.7-9.2-27.5
								C57.8,2,49.6-1.4,39.4-1.4C29.2-1.4,21,2,14.8,8.8c-6.1,6.8-9.2,16-9.2,27.5s3.1,20.7,9.2,27.6C21,70.8,29.2,74.2,39.4,74.2z
								"/>
						</g>
						<g>
							<path id="DejaVuSans-118_00000145763141835305864600000012767957194600436378_" d="M81.7,54.7h9.5l17.1-45.9l17.1,45.9h9.5
								L114.4,0h-12.2L81.7,54.7z"/>
						</g>
						<g>
							<path id="DejaVuSans-101_00000073683781432148194630000002863633604733756849_" d="M194.1,29.6v-4.4h-41.3
								c0.4-6.2,2.3-10.9,5.6-14.1c3.3-3.2,8-4.9,13.9-4.9c3.4,0,6.8,0.4,10,1.3c3.2,0.8,6.5,2.1,9.7,3.8V2.8
								c-3.2-1.4-6.5-2.4-9.9-3.1c-3.4-0.7-6.8-1.1-10.3-1.1c-8.7,0-15.6,2.5-20.7,7.6c-5.1,5.1-7.6,12-7.6,20.6
								c0,8.9,2.4,16,7.2,21.3c4.8,5.3,11.4,7.9,19.6,7.9c7.4,0,13.2-2.4,17.5-7.1C192,44.2,194.1,37.7,194.1,29.6z M185.1,32.2
								c-0.1,4.9-1.4,8.8-4.1,11.8c-2.7,2.9-6.2,4.4-10.7,4.4c-5,0-9-1.4-12-4.2c-3-2.8-4.7-6.8-5.2-12L185.1,32.2z"/>
						</g>
						<g>
							<path id="DejaVuSans-114_00000178180653474662791810000002460035284574955167_" d="M240.5,46.3c-1,0.6-2.1,1-3.3,1.3
								c-1.2,0.3-2.5,0.4-3.9,0.4c-5.1,0-9-1.7-11.7-5s-4.1-8-4.1-14.2V0h-9v54.7h9v-8.5c1.9,3.3,4.4,5.8,7.4,7.4
								c3,1.6,6.7,2.4,11,2.4c0.6,0,1.3,0,2-0.1c0.8-0.1,1.6-0.2,2.5-0.4L240.5,46.3z"/>
						</g>
						<g>
							<path id="DejaVuSans-105_00000014595049657975566070000009683814299420468360_" d="M249.9,54.7h9V0h-9V54.7z M249.9,76h9
								V64.6h-9V76z"/>
						</g>
						<g>
							<path id="DejaVuSans-106" d="M277.7,54.7h9V-1c0-7-1.3-12-4-15.1c-2.6-3.1-6.9-4.7-12.8-4.7h-3.4v7.6h2.4
								c3.4,0,5.7,0.8,7,2.4c1.2,1.6,1.9,4.8,1.9,9.8V54.7z M277.7,76h9V64.6h-9V76z"/>
						</g>
						<g>
							<path id="DejaVuSans-115_00000009583787047600730810000008405999570455233437_" d="M340.4,53.1v-8.5
								c-2.5,1.3-5.2,2.3-7.9,2.9c-2.7,0.7-5.6,1-8.5,1c-4.5,0-7.8-0.7-10-2c-2.2-1.4-3.3-3.4-3.3-6.2c0-2.1,0.8-3.7,2.4-4.9
								s4.8-2.3,9.6-3.4l3.1-0.7c6.4-1.4,10.9-3.3,13.6-5.8s4-6,4-10.4c0-5.1-2-9.1-6-12.1c-4-3-9.5-4.4-16.6-4.4
								c-2.9,0-6,0.3-9.2,0.9c-3.2,0.6-6.5,1.4-10,2.6v9.3c3.3-1.7,6.6-3,9.8-3.9c3.2-0.9,6.4-1.3,9.6-1.3c4.2,0,7.5,0.7,9.8,2.2
								c2.3,1.4,3.4,3.5,3.4,6.1c0,2.4-0.8,4.3-2.5,5.6c-1.6,1.3-5.2,2.6-10.8,3.8l-3.1,0.7c-5.6,1.2-9.6,3-12.1,5.4
								c-2.5,2.4-3.7,5.8-3.7,10c0,5.1,1.8,9.1,5.5,11.9c3.6,2.8,8.8,4.2,15.5,4.2c3.3,0,6.4-0.2,9.4-0.7
								C335.2,54.8,337.9,54.1,340.4,53.1z"/>
						</g>
						<g>
							<path id="DejaVuSans-115_00000054245686893231067640000002461008913019433389_" d="M392.5,53.1v-8.5
								c-2.5,1.3-5.2,2.3-7.9,2.9c-2.7,0.7-5.6,1-8.5,1c-4.5,0-7.8-0.7-10-2c-2.2-1.4-3.3-3.4-3.3-6.2c0-2.1,0.8-3.7,2.4-4.9
								s4.8-2.3,9.6-3.4l3.1-0.7c6.4-1.4,10.9-3.3,13.6-5.8s4-6,4-10.4c0-5.1-2-9.1-6-12.1c-4-3-9.5-4.4-16.6-4.4
								c-2.9,0-6,0.3-9.2,0.9c-3.2,0.6-6.5,1.4-10,2.6v9.3c3.3-1.7,6.6-3,9.8-3.9c3.2-0.9,6.4-1.3,9.6-1.3c4.2,0,7.5,0.7,9.8,2.2
								c2.3,1.4,3.4,3.5,3.4,6.1c0,2.4-0.8,4.3-2.5,5.6c-1.6,1.3-5.2,2.6-10.8,3.8l-3.1,0.7c-5.6,1.2-9.6,3-12.1,5.4
								c-2.5,2.4-3.7,5.8-3.7,10c0,5.1,1.8,9.1,5.5,11.9c3.6,2.8,8.8,4.2,15.5,4.2c3.3,0,6.4-0.2,9.4-0.7
								C387.3,54.8,390,54.1,392.5,53.1z"/>
						</g>
						<g>
							<path id="DejaVuSans-101_00000004544708299193499440000007745882940990965434_" d="M456.5,29.6v-4.4h-41.3
								c0.4-6.2,2.3-10.9,5.6-14.1c3.3-3.2,8-4.9,13.9-4.9c3.4,0,6.8,0.4,10,1.3c3.2,0.8,6.5,2.1,9.7,3.8V2.8
								c-3.2-1.4-6.5-2.4-9.9-3.1c-3.4-0.7-6.8-1.1-10.3-1.1c-8.7,0-15.6,2.5-20.7,7.6c-5.1,5.1-7.6,12-7.6,20.6
								c0,8.9,2.4,16,7.2,21.3c4.8,5.3,11.4,7.9,19.6,7.9c7.4,0,13.2-2.4,17.5-7.1C454.4,44.2,456.5,37.7,456.5,29.6z M447.5,32.2
								c-0.1,4.9-1.4,8.8-4.1,11.8c-2.7,2.9-6.2,4.4-10.7,4.4c-5,0-9-1.4-12-4.2c-3-2.8-4.7-6.8-5.2-12L447.5,32.2z"/>
						</g>
						<g>
							<path id="DejaVuSans-108_00000056428102299699360720000011274398069548299448_" d="M471.2,76h9V0h-9V76z"/>
						</g>
					</g>
				</g>
			</g>
			<g id="xtick_8">
				<g id="line2d_8">
					<g>
						<g>
							<path id="mcfa4eb060f_00000173877493276464724450000015314885729919483564_" class="st13" d="M433.5,201.6v3.5"/>
						</g>
					</g>
				</g>
				<g id="text_8">
					<g transform="translate(436.243196 249.660938)rotate(-90)scale(0.1 -0.1)">
						<g>
							<path id="DejaVuSans-76" d="M9.8,72.9h9.9V8.3h35.5V0H9.8V72.9z"/>
						</g>
						<g>
							<path id="DejaVuSans-105_00000087379755604931300810000015585963396988275592_" d="M65.1,54.7h9V0h-9V54.7z M65.1,76h9V64.6
								h-9V76z"/>
						</g>
						<g>
							<path id="DejaVuSans-109" d="M135.5,44.2c2.2,4,4.9,7,8.1,8.9s6.8,2.9,11,2.9c5.7,0,10.1-2,13.2-6c3.1-4,4.6-9.6,4.6-17V0h-9
								v32.7c0,5.2-0.9,9.1-2.8,11.7c-1.9,2.5-4.7,3.8-8.5,3.8c-4.7,0-8.3-1.5-11-4.6c-2.7-3.1-4-7.3-4-12.6V0h-9v32.7
								c0,5.3-0.9,9.2-2.8,11.7c-1.9,2.5-4.7,3.8-8.6,3.8c-4.6,0-8.2-1.6-11-4.7c-2.7-3.1-4-7.3-4-12.6V0h-9v54.7h9v-8.5
								c2.1,3.4,4.5,5.8,7.4,7.4c2.9,1.6,6.3,2.4,10.2,2.4c4,0,7.4-1,10.1-3C132.1,51,134.2,48,135.5,44.2z"/>
						</g>
						<g>
							<path id="DejaVuSans-98" d="M229.6,27.3c0,6.6-1.4,11.8-4.1,15.5s-6.5,5.6-11.2,5.6c-4.8,0-8.5-1.9-11.2-5.6
								s-4.1-8.9-4.1-15.5s1.4-11.8,4.1-15.5s6.5-5.6,11.2-5.6c4.8,0,8.5,1.9,11.2,5.6S229.6,20.7,229.6,27.3z M199,46.4
								c1.9,3.2,4.3,5.7,7.2,7.2c2.9,1.6,6.3,2.4,10.3,2.4c6.6,0,12-2.6,16.2-7.9c4.2-5.3,6.2-12.2,6.2-20.8s-2.1-15.5-6.2-20.8
								c-4.1-5.3-9.5-7.9-16.2-7.9c-4,0-7.4,0.8-10.3,2.4c-2.9,1.6-5.3,4-7.2,7.3V0h-9v76h9V46.4z"/>
						</g>
						<g>
							<path id="DejaVuSans-117" d="M252.9,21.6v33.1h9V21.9c0-5.2,1-9.1,3-11.7c2-2.6,5.1-3.9,9.1-3.9c4.8,0,8.7,1.5,11.5,4.6
								c2.8,3.1,4.2,7.3,4.2,12.7v31h9V0h-9v8.4c-2.2-3.3-4.7-5.8-7.6-7.4c-2.9-1.6-6.2-2.4-10-2.4c-6.3,0-11.1,2-14.3,5.9
								C254.5,8.3,252.9,14.1,252.9,21.6z"/>
						</g>
						<g>
							<path id="DejaVuSans-114_00000058549489303614023530000015595709381794603450_" d="M348.9,46.3c-1,0.6-2.1,1-3.3,1.3
								c-1.2,0.3-2.5,0.4-3.9,0.4c-5.1,0-9-1.7-11.7-5s-4.1-8-4.1-14.2V0h-9v54.7h9v-8.5c1.9,3.3,4.4,5.8,7.4,7.4
								c3,1.6,6.7,2.4,11,2.4c0.6,0,1.3,0,2-0.1c0.8-0.1,1.6-0.2,2.5-0.4L348.9,46.3z"/>
						</g>
						<g>
							<path id="DejaVuSans-103_00000160906108393522021110000009214032049886229669_" d="M392.5,28c0,6.5-1.3,11.6-4,15.1
								c-2.7,3.6-6.4,5.4-11.3,5.4c-4.8,0-8.6-1.8-11.2-5.4c-2.7-3.6-4-8.6-4-15.1c0-6.5,1.3-11.5,4-15.1s6.4-5.4,11.2-5.4
								c4.9,0,8.6,1.8,11.3,5.4C391.2,16.5,392.5,21.5,392.5,28z M401.5,6.8c0-9.3-2.1-16.2-6.2-20.8c-4.1-4.5-10.5-6.8-19-6.8
								c-3.2,0-6.1,0.2-8.9,0.7s-5.5,1.2-8.2,2.2v8.7c2.6-1.4,5.2-2.5,7.8-3.2c2.6-0.7,5.2-1,7.9-1c5.9,0,10.3,1.5,13.2,4.6
								s4.4,7.7,4.4,13.9v4.5c-1.9-3.2-4.2-5.6-7.1-7.2S379,0,375,0c-6.7,0-12.1,2.6-16.2,7.7c-4.1,5.1-6.2,11.9-6.2,20.3
								c0,8.5,2.1,15.2,6.2,20.3c4.1,5.1,9.5,7.7,16.2,7.7c4,0,7.5-0.8,10.4-2.4s5.3-4,7.1-7.2v8.3h9V6.8z"/>
						</g>
					</g>
				</g>
			</g>
			<g id="xtick_9">
				<g id="line2d_9">
					<g>
						<g>
							<path id="mcfa4eb060f_00000154417669307971017180000012803937782514178705_" class="st13" d="M476.5,201.6v3.5"/>
						</g>
					</g>
				</g>
				<g id="text_9">
					<g transform="translate(479.23241 263.484375)rotate(-90)scale(0.1 -0.1)">
						<g>
							<path id="DejaVuSans-71_00000169515940556094787400000009037979735535344780_" d="M59.5,10.4V30H43.4v8.1h25.9V6.8
								c-3.8-2.7-8-4.7-12.6-6.1C52.1-0.7,47.2-1.4,42-1.4c-11.4,0-20.3,3.3-26.8,10c-6.4,6.7-9.6,15.9-9.6,27.8
								c0,11.9,3.2,21.2,9.6,27.9c6.4,6.7,15.4,10,26.8,10c4.8,0,9.3-0.6,13.5-1.8c4.3-1.2,8.2-2.9,11.8-5.2V56.8
								c-3.6,3.1-7.5,5.4-11.6,7c-4.1,1.6-8.4,2.3-12.9,2.3c-8.9,0-15.6-2.5-20.1-7.5c-4.5-5-6.7-12.4-6.7-22.3
								c0-9.8,2.2-17.2,6.7-22.2c4.5-5,11.2-7.5,20.1-7.5c3.5,0,6.6,0.3,9.3,0.9C54.9,8.2,57.3,9.1,59.5,10.4z"/>
						</g>
						<g>
							<path id="DejaVuSans-101_00000077319707042607591350000005910774841331760006_" d="M133.7,29.6v-4.4H92.4
								c0.4-6.2,2.3-10.9,5.6-14.1s8-4.9,13.9-4.9c3.4,0,6.8,0.4,10,1.3c3.2,0.8,6.5,2.1,9.7,3.8V2.8c-3.2-1.4-6.5-2.4-9.9-3.1
								c-3.4-0.7-6.8-1.1-10.3-1.1c-8.7,0-15.6,2.5-20.7,7.6c-5.1,5.1-7.6,12-7.6,20.6c0,8.9,2.4,16,7.2,21.3
								c4.8,5.3,11.4,7.9,19.6,7.9c7.4,0,13.2-2.4,17.5-7.1C131.6,44.2,133.7,37.7,133.7,29.6z M124.7,32.2
								c-0.1,4.9-1.4,8.8-4.1,11.8c-2.7,2.9-6.2,4.4-10.7,4.4c-5,0-9-1.4-12-4.2c-3-2.8-4.7-6.8-5.2-12L124.7,32.2z"/>
						</g>
						<g>
							<path id="DejaVuSans-108_00000083795538557240606630000012403573257718136998_" d="M148.4,76h9V0h-9V76z"/>
						</g>
						<g>
							<path id="DejaVuSans-100_00000013182835012116171360000003218209867440141440_" d="M212.2,46.4V76h9V0h-9v8.2
								C210.3,5,207.9,2.5,205,1c-2.9-1.6-6.3-2.4-10.4-2.4c-6.6,0-12,2.6-16.1,7.9c-4.1,5.3-6.2,12.2-6.2,20.8s2.1,15.5,6.2,20.8
								c4.2,5.3,9.5,7.9,16.1,7.9c4,0,7.5-0.8,10.4-2.4C207.9,52.1,210.3,49.6,212.2,46.4z M181.6,27.3c0-6.6,1.4-11.8,4.1-15.5
								s6.5-5.6,11.2-5.6s8.5,1.9,11.2,5.6c2.7,3.8,4.1,8.9,4.1,15.5s-1.4,11.8-4.1,15.5c-2.7,3.8-6.5,5.6-11.2,5.6
								s-8.5-1.9-11.2-5.6C183,39.1,181.6,33.9,181.6,27.3z"/>
						</g>
						<g>
							<path id="DejaVuSans-101_00000120550070470046505220000007421432426586325658_" d="M286.5,29.6v-4.4h-41.3
								c0.4-6.2,2.3-10.9,5.6-14.1c3.3-3.2,8-4.9,13.9-4.9c3.4,0,6.8,0.4,10,1.3c3.2,0.8,6.5,2.1,9.7,3.8V2.8
								c-3.2-1.4-6.5-2.4-9.9-3.1c-3.4-0.7-6.8-1.1-10.3-1.1c-8.7,0-15.6,2.5-20.7,7.6c-5.1,5.1-7.6,12-7.6,20.6
								c0,8.9,2.4,16,7.2,21.3c4.8,5.3,11.4,7.9,19.6,7.9c7.4,0,13.2-2.4,17.5-7.1C284.3,44.2,286.5,37.7,286.5,29.6z M277.5,32.2
								c-0.1,4.9-1.4,8.8-4.1,11.8c-2.7,2.9-6.2,4.4-10.7,4.4c-5,0-9-1.4-12-4.2c-3-2.8-4.7-6.8-5.2-12L277.5,32.2z"/>
						</g>
						<g>
							<path id="DejaVuSans-114_00000120533593864230003970000003714186978493383552_" d="M332.9,46.3c-1,0.6-2.1,1-3.3,1.3
								c-1.2,0.3-2.5,0.4-3.9,0.4c-5.1,0-9-1.7-11.7-5c-2.7-3.3-4.1-8-4.1-14.2V0h-9v54.7h9v-8.5c1.9,3.3,4.4,5.8,7.4,7.4
								c3,1.6,6.7,2.4,11,2.4c0.6,0,1.3,0,2-0.1c0.8-0.1,1.6-0.2,2.5-0.4L332.9,46.3z"/>
						</g>
						<g>
							<path id="DejaVuSans-108_00000030446158253038987680000006163244940840513950_" d="M342.3,76h9V0h-9V76z"/>
						</g>
						<g>
							<path id="DejaVuSans-97_00000174599758530007325970000014792799298530211511_" d="M395,27.5c-7.3,0-12.3-0.8-15.1-2.5
								s-4.2-4.5-4.2-8.5c0-3.2,1.1-5.7,3.2-7.6c2.1-1.9,5-2.8,8.6-2.8c5,0,9,1.8,12,5.3c3,3.5,4.5,8.2,4.5,14.1v2H395z M412.9,31.2
								V0h-9v8.3c-2.1-3.3-4.6-5.8-7.7-7.3s-6.8-2.4-11.2-2.4c-5.6,0-10,1.6-13.4,4.7c-3.3,3.1-5,7.4-5,12.6
								c0,6.1,2.1,10.8,6.2,13.9c4.1,3.1,10.3,4.7,18.4,4.7h12.6v0.9c0,4.1-1.4,7.3-4.1,9.6c-2.7,2.3-6.5,3.4-11.5,3.4
								c-3.1,0-6.2-0.4-9.1-1.1c-3-0.8-5.8-1.9-8.5-3.4v8.3c3.3,1.3,6.5,2.2,9.6,2.8c3.1,0.6,6.1,1,9,1c7.9,0,13.8-2.1,17.7-6.2
								C410.9,45.8,412.9,39.5,412.9,31.2z"/>
						</g>
						<g>
							<path id="DejaVuSans-110_00000162325446617289899070000007277427703817889970_" d="M476.9,33V0h-9v32.7c0,5.2-1,9-3,11.6
								c-2,2.6-5,3.9-9.1,3.9c-4.9,0-8.7-1.5-11.5-4.6c-2.8-3.1-4.2-7.3-4.2-12.6V0h-9v54.7h9v-8.5c2.2,3.3,4.7,5.8,7.6,7.4
								c2.9,1.6,6.3,2.4,10.1,2.4c6.3,0,11-1.9,14.2-5.8C475.2,46.3,476.9,40.6,476.9,33z"/>
						</g>
						<g>
							<path id="DejaVuSans-100_00000029023838724146378840000016764564146289351598_" d="M530.8,46.4V76h9V0h-9v8.2
								c-1.9-3.2-4.3-5.7-7.2-7.2c-2.9-1.6-6.3-2.4-10.4-2.4c-6.6,0-12,2.6-16.1,7.9c-4.1,5.3-6.2,12.2-6.2,20.8s2.1,15.5,6.2,20.8
								c4.2,5.3,9.5,7.9,16.1,7.9c4,0,7.5-0.8,10.4-2.4C526.5,52.1,528.9,49.6,530.8,46.4z M500.1,27.3c0-6.6,1.4-11.8,4.1-15.5
								s6.5-5.6,11.2-5.6s8.5,1.9,11.2,5.6c2.7,3.8,4.1,8.9,4.1,15.5s-1.4,11.8-4.1,15.5c-2.7,3.8-6.5,5.6-11.2,5.6
								s-8.5-1.9-11.2-5.6C501.5,39.1,500.1,33.9,500.1,27.3z"/>
						</g>
					</g>
				</g>
			</g>
			<g id="xtick_10">
				<g id="line2d_10">
					<g>
						<g>
							<path id="mcfa4eb060f_00000013192787620776296120000016422032953336975491_" class="st13" d="M519.5,201.6v3.5"/>
						</g>
					</g>
				</g>
				<g id="text_10">
					<g transform="translate(522.221625 281.682813)rotate(-90)scale(0.1 -0.1)">
						<g>
							<path id="DejaVuSans-78" d="M9.8,72.9h13.3l32.3-61v61H65V0H51.7L19.4,61V0H9.8V72.9z"/>
						</g>
						<g>
							<path id="DejaVuSans-111_00000161593082116328216430000003311449092135291777_" d="M105.4,48.4c-4.8,0-8.6-1.9-11.4-5.6
								s-4.2-8.9-4.2-15.5s1.4-11.7,4.2-15.5c2.8-3.8,6.6-5.6,11.5-5.6c4.8,0,8.6,1.9,11.4,5.7c2.8,3.8,4.2,8.9,4.2,15.4
								c0,6.5-1.4,11.6-4.2,15.4C114,46.5,110.2,48.4,105.4,48.4z M105.4,56c7.8,0,13.9-2.5,18.4-7.6c4.5-5.1,6.7-12.1,6.7-21.1
								c0-8.9-2.2-16-6.7-21.1c-4.5-5.1-10.6-7.6-18.4-7.6c-7.8,0-14,2.5-18.4,7.6c-4.4,5.1-6.7,12.1-6.7,21.1c0,9,2.2,16,6.7,21.1
								C91.4,53.5,97.6,56,105.4,56z"/>
						</g>
						<g>
							<path id="DejaVuSans-111_00000088830688001846198340000012868185776109291136_" d="M166.6,48.4c-4.8,0-8.6-1.9-11.4-5.6
								s-4.2-8.9-4.2-15.5s1.4-11.7,4.2-15.5c2.8-3.8,6.6-5.6,11.5-5.6c4.8,0,8.6,1.9,11.4,5.7c2.8,3.8,4.2,8.9,4.2,15.4
								c0,6.5-1.4,11.6-4.2,15.4C175.2,46.5,171.4,48.4,166.6,48.4z M166.6,56c7.8,0,13.9-2.5,18.4-7.6c4.5-5.1,6.7-12.1,6.7-21.1
								c0-8.9-2.2-16-6.7-21.1c-4.5-5.1-10.6-7.6-18.4-7.6c-7.8,0-14,2.5-18.4,7.6c-4.4,5.1-6.7,12.1-6.7,21.1c0,9,2.2,16,6.7,21.1
								C152.6,53.5,158.8,56,166.6,56z"/>
						</g>
						<g>
							<path id="DejaVuSans-114_00000153690601160468607400000002791287731945759914_" d="M238.3,46.3c-1,0.6-2.1,1-3.3,1.3
								c-1.2,0.3-2.5,0.4-3.9,0.4c-5.1,0-9-1.7-11.7-5s-4.1-8-4.1-14.2V0h-9v54.7h9v-8.5c1.9,3.3,4.4,5.8,7.4,7.4
								c3,1.6,6.7,2.4,11,2.4c0.6,0,1.3,0,2-0.1c0.8-0.1,1.6-0.2,2.5-0.4L238.3,46.3z"/>
						</g>
						<g>
							<path id="DejaVuSans-100_00000076575514352315497860000001578640112316757140_" d="M281.9,46.4V76h9V0h-9v8.2
								c-1.9-3.3-4.3-5.7-7.2-7.3c-2.9-1.6-6.3-2.4-10.4-2.4c-6.6,0-12,2.6-16.1,7.9c-4.1,5.3-6.2,12.2-6.2,20.8s2.1,15.5,6.2,20.8
								c4.2,5.3,9.5,7.9,16.1,7.9c4,0,7.5-0.8,10.4-2.4C277.7,52.1,280.1,49.6,281.9,46.4z M251.3,27.3c0-6.6,1.4-11.8,4.1-15.5
								s6.5-5.6,11.2-5.6s8.5,1.9,11.2,5.6c2.7,3.8,4.1,8.9,4.1,15.5s-1.4,11.8-4.1,15.5c-2.7,3.8-6.5,5.6-11.2,5.6
								s-8.5-1.9-11.2-5.6S251.3,33.9,251.3,27.3z"/>
						</g>
						<g>
							<path id="DejaVuSans-45" d="M304.9,31.4h26.3v-8h-26.3V31.4z"/>
						</g>
						<g>
							<path id="DejaVuSans-66" d="M352.1,34.8V8.1H368c5.3,0,9.2,1.1,11.8,3.3c2.6,2.2,3.8,5.6,3.8,10.1c0,4.6-1.3,7.9-3.8,10.1
								c-2.6,2.2-6.5,3.2-11.8,3.2H352.1z M352.1,64.8v-22h14.6c4.8,0,8.4,0.9,10.8,2.7c2.4,1.8,3.5,4.6,3.5,8.3
								c0,3.7-1.2,6.4-3.5,8.2c-2.4,1.8-5.9,2.7-10.8,2.7H352.1z M342.3,72.9h25.2c7.5,0,13.3-1.6,17.4-4.7
								c4.1-3.1,6.1-7.6,6.1-13.3c0-4.5-1-8-3.1-10.7s-5.1-4.3-9.2-4.9c4.9-1,8.6-3.2,11.3-6.5c2.7-3.3,4-7.4,4-12.4
								c0-6.5-2.2-11.5-6.6-15.1C382.9,1.8,376.6,0,368.5,0h-26.2V72.9z"/>
						</g>
						<g>
							<path id="DejaVuSans-114_00000078046058490246930550000014039492348924629684_" d="M442.2,46.3c-1,0.6-2.1,1-3.3,1.3
								c-1.2,0.3-2.5,0.4-3.9,0.4c-5.1,0-9-1.7-11.7-5s-4.1-8-4.1-14.2V0h-9v54.7h9v-8.5c1.9,3.3,4.4,5.8,7.4,7.4
								c3,1.6,6.7,2.4,11,2.4c0.6,0,1.3,0,2-0.1c0.8-0.1,1.6-0.2,2.5-0.4L442.2,46.3z"/>
						</g>
						<g>
							<path id="DejaVuSans-97_00000003106927559676419530000001790263414108597137_" d="M476.5,27.5c-7.3,0-12.3-0.8-15.1-2.5
								s-4.2-4.5-4.2-8.5c0-3.2,1.1-5.7,3.2-7.6c2.1-1.9,5-2.8,8.6-2.8c5,0,9,1.8,12,5.3c3,3.5,4.5,8.2,4.5,14.1v2H476.5z
								 M494.4,31.2V0h-9v8.3c-2.1-3.3-4.6-5.8-7.7-7.3s-6.8-2.4-11.2-2.4c-5.6,0-10,1.6-13.4,4.7c-3.3,3.1-5,7.4-5,12.6
								c0,6.1,2.1,10.8,6.2,13.9c4.1,3.1,10.3,4.7,18.4,4.7h12.6v0.9c0,4.1-1.4,7.3-4.1,9.6s-6.5,3.4-11.5,3.4
								c-3.1,0-6.2-0.4-9.1-1.1c-3-0.8-5.8-1.9-8.5-3.4v8.3c3.3,1.3,6.5,2.2,9.6,2.8c3.1,0.6,6.1,1,9,1c7.9,0,13.8-2.1,17.7-6.2
								C492.4,45.8,494.4,39.5,494.4,31.2z"/>
						</g>
						<g>
							<path id="DejaVuSans-98_00000092427049935757356500000007190536535282773923_" d="M552.2,27.3c0,6.6-1.4,11.8-4.1,15.5
								s-6.5,5.6-11.2,5.6c-4.8,0-8.5-1.9-11.2-5.6s-4.1-8.9-4.1-15.5s1.4-11.8,4.1-15.5s6.5-5.6,11.2-5.6c4.8,0,8.5,1.9,11.2,5.6
								S552.2,20.7,552.2,27.3z M521.6,46.4c1.9,3.2,4.3,5.7,7.2,7.2c2.9,1.6,6.3,2.4,10.3,2.4c6.6,0,12-2.6,16.2-7.9
								c4.2-5.3,6.2-12.2,6.2-20.8s-2.1-15.5-6.2-20.8c-4.1-5.3-9.5-7.9-16.2-7.9c-4,0-7.4,0.8-10.3,2.4c-2.9,1.6-5.3,4-7.2,7.3V0
								h-9v76h9V46.4z"/>
						</g>
						<g>
							<path id="DejaVuSans-97_00000148624399623259641920000001041717874769485222_" d="M601.2,27.5c-7.3,0-12.3-0.8-15.1-2.5
								s-4.2-4.5-4.2-8.5c0-3.2,1.1-5.7,3.2-7.6c2.1-1.9,5-2.8,8.6-2.8c5,0,9,1.8,12,5.3s4.5,8.2,4.5,14.1v2H601.2z M619.1,31.2V0
								h-9v8.3c-2.1-3.3-4.6-5.8-7.7-7.3s-6.8-2.4-11.2-2.4c-5.6,0-10,1.6-13.4,4.7c-3.3,3.1-5,7.4-5,12.6c0,6.1,2.1,10.8,6.2,13.9
								c4.1,3.1,10.3,4.7,18.4,4.7h12.6v0.9c0,4.1-1.4,7.3-4.1,9.6s-6.5,3.4-11.5,3.4c-3.1,0-6.2-0.4-9.1-1.1
								c-3-0.8-5.8-1.9-8.5-3.4v8.3c3.3,1.3,6.5,2.2,9.6,2.8c3.1,0.6,6.1,1,9,1c7.9,0,13.8-2.1,17.7-6.2
								C617.2,45.8,619.1,39.5,619.1,31.2z"/>
						</g>
						<g>
							<path id="DejaVuSans-110_00000039100803100595693520000005223037904203263667_" d="M683.1,33V0h-9v32.7c0,5.2-1,9-3,11.6
								c-2,2.6-5,3.9-9.1,3.9c-4.9,0-8.7-1.5-11.5-4.6c-2.8-3.1-4.2-7.3-4.2-12.6V0h-9v54.7h9v-8.5c2.2,3.3,4.7,5.8,7.6,7.4
								c2.9,1.6,6.3,2.4,10.1,2.4c6.3,0,11-1.9,14.2-5.8C681.5,46.3,683.1,40.6,683.1,33z"/>
						</g>
						<g>
							<path id="DejaVuSans-116_00000047747061303477046840000012386158111906172054_" d="M709.9,70.2V54.7h18.5v-7h-18.5V18
								c0-4.5,0.6-7.3,1.8-8.6s3.7-1.9,7.5-1.9h9.2V0h-9.2c-6.9,0-11.7,1.3-14.4,3.9c-2.6,2.6-4,7.3-4,14.1v29.7h-6.6v7h6.6v15.5
								H709.9z"/>
						</g>
					</g>
				</g>
			</g>
			<g id="xtick_11">
				<g id="line2d_11">
					<g>
						<g>
							<path id="mcfa4eb060f_00000124152461352541280330000016575586822690492327_" class="st13" d="M562.5,201.6v3.5"/>
						</g>
					</g>
				</g>
				<g id="text_11">
					<g transform="translate(565.210839 280.220313)rotate(-90)scale(0.1 -0.1)">
						<g>
							<path id="DejaVuSans-78_00000047051831143561316530000013582941170716541108_" d="M9.8,72.9h13.3l32.3-61v61H65V0H51.7
								L19.4,61V0H9.8V72.9z"/>
						</g>
						<g>
							<path id="DejaVuSans-111_00000000916624553538603110000001353415847712441766_" d="M105.4,48.4c-4.8,0-8.6-1.9-11.4-5.6
								c-2.8-3.8-4.2-8.9-4.2-15.5s1.4-11.7,4.2-15.5c2.8-3.8,6.6-5.6,11.5-5.6c4.8,0,8.6,1.9,11.4,5.7c2.8,3.8,4.2,8.9,4.2,15.4
								c0,6.5-1.4,11.6-4.2,15.4C114,46.5,110.2,48.4,105.4,48.4z M105.4,56c7.8,0,13.9-2.5,18.4-7.6c4.5-5.1,6.7-12.1,6.7-21.1
								c0-8.9-2.2-16-6.7-21.1c-4.5-5.1-10.6-7.6-18.4-7.6c-7.8,0-14,2.5-18.4,7.6c-4.4,5.1-6.7,12.1-6.7,21.1c0,9,2.2,16,6.7,21.1
								C91.4,53.5,97.6,56,105.4,56z"/>
						</g>
						<g>
							<path id="DejaVuSans-111_00000021806380076919180840000000847493703935382145_" d="M166.6,48.4c-4.8,0-8.6-1.9-11.4-5.6
								s-4.2-8.9-4.2-15.5s1.4-11.7,4.2-15.5c2.8-3.8,6.6-5.6,11.5-5.6c4.8,0,8.6,1.9,11.4,5.7c2.8,3.8,4.2,8.9,4.2,15.4
								c0,6.5-1.4,11.6-4.2,15.4C175.2,46.5,171.4,48.4,166.6,48.4z M166.6,56c7.8,0,13.9-2.5,18.4-7.6c4.5-5.1,6.7-12.1,6.7-21.1
								c0-8.9-2.2-16-6.7-21.1c-4.5-5.1-10.6-7.6-18.4-7.6c-7.8,0-14,2.5-18.4,7.6c-4.4,5.1-6.7,12.1-6.7,21.1c0,9,2.2,16,6.7,21.1
								C152.6,53.5,158.8,56,166.6,56z"/>
						</g>
						<g>
							<path id="DejaVuSans-114_00000119088594031528392800000009973266532416195980_" d="M238.3,46.3c-1,0.6-2.1,1-3.3,1.3
								c-1.2,0.3-2.5,0.4-3.9,0.4c-5.1,0-9-1.7-11.7-5s-4.1-8-4.1-14.2V0h-9v54.7h9v-8.5c1.9,3.3,4.4,5.8,7.4,7.4
								c3,1.6,6.7,2.4,11,2.4c0.6,0,1.3,0,2-0.1c0.8-0.1,1.6-0.2,2.5-0.4L238.3,46.3z"/>
						</g>
						<g>
							<path id="DejaVuSans-100_00000117644593503088165260000007029820574218747544_" d="M281.9,46.4V76h9V0h-9v8.2
								c-1.9-3.3-4.3-5.7-7.2-7.3c-2.9-1.6-6.3-2.4-10.4-2.4c-6.6,0-12,2.6-16.1,7.9c-4.1,5.3-6.2,12.2-6.2,20.8s2.1,15.5,6.2,20.8
								c4.2,5.3,9.5,7.9,16.1,7.9c4,0,7.5-0.8,10.4-2.4C277.7,52.1,280.1,49.6,281.9,46.4z M251.3,27.3c0-6.6,1.4-11.8,4.1-15.5
								s6.5-5.6,11.2-5.6s8.5,1.9,11.2,5.6c2.7,3.8,4.1,8.9,4.1,15.5s-1.4,11.8-4.1,15.5c-2.7,3.8-6.5,5.6-11.2,5.6
								s-8.5-1.9-11.2-5.6S251.3,33.9,251.3,27.3z"/>
						</g>
						<g>
							<path id="DejaVuSans-45_00000042738788100328693040000007103766869189376444_" d="M304.9,31.4h26.3v-8h-26.3V31.4z"/>
						</g>
						<g>
							<path id="DejaVuSans-72" d="M345.9,72.9h9.9V43h35.8v29.9h9.9V0h-9.9v34.7h-35.8V0h-9.9V72.9z"/>
						</g>
						<g>
							<path id="DejaVuSans-111_00000155838874724958861580000002546600117642868149_" d="M441.9,48.4c-4.8,0-8.6-1.9-11.4-5.6
								s-4.2-8.9-4.2-15.5s1.4-11.7,4.2-15.5c2.8-3.8,6.6-5.6,11.5-5.6c4.8,0,8.6,1.9,11.4,5.7c2.8,3.8,4.2,8.9,4.2,15.4
								c0,6.5-1.4,11.6-4.2,15.4C450.5,46.5,446.7,48.4,441.9,48.4z M441.9,56c7.8,0,13.9-2.5,18.4-7.6c4.5-5.1,6.7-12.1,6.7-21.1
								c0-8.9-2.2-16-6.7-21.1c-4.5-5.1-10.6-7.6-18.4-7.6c-7.8,0-14,2.5-18.4,7.6c-4.4,5.1-6.7,12.1-6.7,21.1c0,9,2.2,16,6.7,21.1
								C427.9,53.5,434.1,56,441.9,56z"/>
						</g>
						<g>
							<path id="DejaVuSans-108_00000176010152107810766650000003171235067293461376_" d="M481.9,76h9V0h-9V76z"/>
						</g>
						<g>
							<path id="DejaVuSans-108_00000151512564409869257100000012048422149836758956_" d="M509.7,76h9V0h-9V76z"/>
						</g>
						<g>
							<path id="DejaVuSans-97_00000001634525254511362050000006827937908162595213_" d="M562.3,27.5c-7.3,0-12.3-0.8-15.1-2.5
								s-4.2-4.5-4.2-8.5c0-3.2,1.1-5.7,3.2-7.6c2.1-1.9,5-2.8,8.6-2.8c5,0,9,1.8,12,5.3s4.5,8.2,4.5,14.1v2H562.3z M580.2,31.2V0
								h-9v8.3c-2.1-3.3-4.6-5.8-7.7-7.3s-6.8-2.4-11.2-2.4c-5.6,0-10,1.6-13.4,4.7c-3.3,3.1-5,7.4-5,12.6c0,6.1,2.1,10.8,6.2,13.9
								c4.1,3.1,10.3,4.7,18.4,4.7h12.6v0.9c0,4.1-1.4,7.3-4.1,9.6s-6.5,3.4-11.5,3.4c-3.1,0-6.2-0.4-9.1-1.1
								c-3-0.8-5.8-1.9-8.5-3.4v8.3c3.3,1.3,6.5,2.2,9.6,2.8c3.1,0.6,6.1,1,9,1c7.9,0,13.8-2.1,17.7-6.2
								C578.3,45.7,580.2,39.5,580.2,31.2z"/>
						</g>
						<g>
							<path id="DejaVuSans-110_00000123434474012956127060000017320231028654281890_" d="M644.2,33V0h-9v32.7c0,5.2-1,9-3,11.6
								c-2,2.6-5,3.9-9.1,3.9c-4.9,0-8.7-1.5-11.5-4.6c-2.8-3.1-4.2-7.3-4.2-12.6V0h-9v54.7h9v-8.5c2.2,3.3,4.7,5.8,7.6,7.4
								c2.9,1.6,6.3,2.4,10.1,2.4c6.3,0,11-1.9,14.2-5.8C642.6,46.3,644.2,40.6,644.2,33z"/>
						</g>
						<g>
							<path id="DejaVuSans-100_00000089573621697144309940000012393705714836602766_" d="M698.1,46.4V76h9V0h-9v8.2
								c-1.9-3.3-4.3-5.7-7.2-7.3c-2.9-1.6-6.3-2.4-10.4-2.4c-6.6,0-12,2.6-16.1,7.9c-4.1,5.3-6.2,12.2-6.2,20.8s2.1,15.5,6.2,20.8
								c4.2,5.3,9.5,7.9,16.1,7.9c4,0,7.5-0.8,10.4-2.4C693.8,52.1,696.2,49.6,698.1,46.4z M667.5,27.3c0-6.6,1.4-11.8,4.1-15.5
								s6.5-5.6,11.2-5.6s8.5,1.9,11.2,5.6c2.7,3.8,4.1,8.9,4.1,15.5s-1.4,11.8-4.1,15.5c-2.7,3.8-6.5,5.6-11.2,5.6
								s-8.5-1.9-11.2-5.6S667.5,33.9,667.5,27.3z"/>
						</g>
					</g>
				</g>
			</g>
			<g id="xtick_12">
				<g id="line2d_12">
					<g>
						<g>
							<path id="mcfa4eb060f_00000154409807164627492490000011179183318027842224_" class="st13" d="M605.4,201.6v3.5"/>
						</g>
					</g>
				</g>
				<g id="text_12">
					<g transform="translate(608.200053 272.53125)rotate(-90)scale(0.1 -0.1)">
						<g>
							<path id="DejaVuSans-90_00000079465711350298858360000017229195468801865889_" d="M5.6,72.9h57.3v-7.5L16.8,8.3H64V0H4.5v7.5
								l46.1,57.1h-45V72.9z"/>
						</g>
						<g>
							<path id="DejaVuSans-117_00000050655417638737059040000014103039105070273678_" d="M77,21.6v33.1h9V21.9c0-5.2,1-9.1,3-11.7
								c2-2.6,5.1-3.9,9.1-3.9c4.8,0,8.7,1.5,11.5,4.6c2.8,3.1,4.2,7.3,4.2,12.7v31h9V0h-9v8.4c-2.2-3.3-4.7-5.8-7.6-7.4
								c-2.9-1.6-6.2-2.4-10-2.4c-6.3,0-11.1,2-14.3,5.9C78.6,8.3,77,14.1,77,21.6z"/>
						</g>
						<g>
							<path id="DejaVuSans-105_00000059279791032822459950000009849697043078559666_" d="M141.3,54.7h9V0h-9V54.7z M141.3,76h9
								V64.6h-9V76z"/>
						</g>
						<g>
							<path id="DejaVuSans-100_00000123430165954500613470000015271319403361187982_" d="M205.1,46.4V76h9V0h-9v8.2
								c-1.9-3.3-4.3-5.7-7.2-7.3c-2.9-1.6-6.3-2.4-10.4-2.4c-6.6,0-12,2.6-16.1,7.9c-4.1,5.3-6.2,12.2-6.2,20.8s2.1,15.5,6.2,20.8
								c4.2,5.3,9.5,7.9,16.1,7.9c4,0,7.5-0.8,10.4-2.4C200.8,52.1,203.2,49.6,205.1,46.4z M174.5,27.3c0-6.6,1.4-11.8,4.1-15.5
								s6.5-5.6,11.2-5.6s8.5,1.9,11.2,5.6c2.7,3.8,4.1,8.9,4.1,15.5s-1.4,11.8-4.1,15.5c-2.7,3.8-6.5,5.6-11.2,5.6
								s-8.5-1.9-11.2-5.6S174.5,33.9,174.5,27.3z"/>
						</g>
						<g>
							<path id="DejaVuSans-45_00000141437685701968561910000007830284977124084405_" d="M228,31.4h26.3v-8H228V31.4z"/>
						</g>
						<g>
							<path id="DejaVuSans-72_00000049191703651569557070000003774030491554158237_" d="M269,72.9h9.9V43h35.8v29.9h9.9V0h-9.9
								v34.7h-35.8V0H269V72.9z"/>
						</g>
						<g>
							<path id="DejaVuSans-111_00000077308381330630053060000008988027306352956857_" d="M365,48.4c-4.8,0-8.6-1.9-11.4-5.6
								s-4.2-8.9-4.2-15.5s1.4-11.7,4.2-15.5c2.8-3.8,6.6-5.6,11.5-5.6c4.8,0,8.6,1.9,11.4,5.7c2.8,3.8,4.2,8.9,4.2,15.4
								c0,6.5-1.4,11.6-4.2,15.4C373.6,46.5,369.8,48.4,365,48.4z M365,56c7.8,0,13.9-2.5,18.4-7.6c4.5-5.1,6.7-12.1,6.7-21.1
								c0-8.9-2.2-16-6.7-21.1C379,1.1,372.8-1.4,365-1.4c-7.8,0-14,2.5-18.4,7.6c-4.4,5.1-6.7,12.1-6.7,21.1c0,9,2.2,16,6.7,21.1
								C351,53.5,357.2,56,365,56z"/>
						</g>
						<g>
							<path id="DejaVuSans-108_00000070814853648536954560000017771216331633434293_" d="M405,76h9V0h-9V76z"/>
						</g>
						<g>
							<path id="DejaVuSans-108_00000064316099635133831390000004289862499082528661_" d="M432.8,76h9V0h-9V76z"/>
						</g>
						<g>
							<path id="DejaVuSans-97_00000147908849994630188710000011841906116569498558_" d="M485.5,27.5c-7.3,0-12.3-0.8-15.1-2.5
								c-2.8-1.7-4.2-4.5-4.2-8.5c0-3.2,1.1-5.7,3.2-7.6c2.1-1.9,5-2.8,8.6-2.8c5,0,9,1.8,12,5.3c3,3.5,4.5,8.2,4.5,14.1v2H485.5z
								 M503.4,31.2V0h-9v8.3c-2.1-3.3-4.6-5.8-7.7-7.3s-6.8-2.4-11.2-2.4c-5.6,0-10,1.6-13.4,4.7c-3.3,3.1-5,7.4-5,12.6
								c0,6.1,2.1,10.8,6.2,13.9c4.1,3.1,10.3,4.7,18.4,4.7h12.6v0.9c0,4.1-1.4,7.3-4.1,9.6s-6.5,3.4-11.5,3.4
								c-3.1,0-6.2-0.4-9.1-1.1c-3-0.8-5.8-1.9-8.5-3.4v8.3c3.3,1.3,6.5,2.2,9.6,2.8c3.1,0.6,6.1,1,9,1c7.9,0,13.8-2.1,17.7-6.2
								C501.4,45.8,503.4,39.5,503.4,31.2z"/>
						</g>
						<g>
							<path id="DejaVuSans-110_00000052070681080640057340000009448369396346896573_" d="M567.3,33V0h-9v32.7c0,5.2-1,9-3,11.6
								c-2,2.6-5,3.9-9.1,3.9c-4.9,0-8.7-1.5-11.5-4.6c-2.8-3.1-4.2-7.3-4.2-12.6V0h-9v54.7h9v-8.5c2.2,3.3,4.7,5.8,7.6,7.4
								c2.9,1.6,6.3,2.4,10.1,2.4c6.3,0,11-1.9,14.2-5.8C565.7,46.3,567.3,40.6,567.3,33z"/>
						</g>
						<g>
							<path id="DejaVuSans-100_00000047763887203677190520000006653781758174032796_" d="M621.2,46.4V76h9V0h-9v8.2
								C619.4,5,617,2.5,614.1,1c-2.9-1.6-6.3-2.4-10.4-2.4c-6.6,0-12,2.6-16.1,7.9c-4.1,5.3-6.2,12.2-6.2,20.8s2.1,15.5,6.2,20.8
								c4.2,5.3,9.5,7.9,16.1,7.9c4,0,7.5-0.8,10.4-2.4C617,52.1,619.4,49.6,621.2,46.4z M590.6,27.3c0-6.6,1.4-11.8,4.1-15.5
								s6.5-5.6,11.2-5.6s8.5,1.9,11.2,5.6c2.7,3.8,4.1,8.9,4.1,15.5s-1.4,11.8-4.1,15.5c-2.7,3.8-6.5,5.6-11.2,5.6
								s-8.5-1.9-11.2-5.6S590.6,33.9,590.6,27.3z"/>
						</g>
					</g>
				</g>
			</g>
		</g>
		<g id="matplotlib.axis_2">
			<g id="ytick_1">
				<g id="line2d_13">
					<g>
						<g>
							<path id="md26293d999" class="st13" d="M90,201.6h-3.5"/>
						</g>
					</g>
				</g>
				<g id="text_13">
					<g transform="translate(76.6375 205.399219)scale(0.1 -0.1)">
						<g>
							<path id="DejaVuSans-48" d="M31.8,66.4c-5.1,0-8.9-2.5-11.5-7.5c-2.6-5-3.8-12.5-3.8-22.5c0-10,1.3-17.5,3.8-22.5
								c2.6-5,6.4-7.5,11.5-7.5c5.1,0,8.9,2.5,11.5,7.5c2.6,5,3.8,12.5,3.8,22.5c0,10-1.3,17.5-3.8,22.5
								C40.7,63.9,36.9,66.4,31.8,66.4z M31.8,74.2c8.2,0,14.4-3.2,18.7-9.7c4.3-6.5,6.5-15.8,6.5-28.1c0-12.3-2.2-21.6-6.5-28.1
								C46.2,1.8,40-1.4,31.8-1.4c-8.2,0-14.4,3.2-18.7,9.7c-4.3,6.5-6.5,15.8-6.5,28.1c0,12.3,2.2,21.7,6.5,28.1
								C17.4,71,23.6,74.2,31.8,74.2z"/>
						</g>
					</g>
				</g>
			</g>
			<g id="ytick_2">
				<g id="line2d_14">
					<g>
						<g>
							<path id="md26293d999_00000067224661358738507480000011230533932746961049_" class="st13" d="M90,177.8h-3.5"/>
						</g>
					</g>
				</g>
				<g id="text_14">
					<g transform="translate(44.825 181.583571)scale(0.1 -0.1)">
						<g>
							<path id="DejaVuSans-53" d="M10.8,72.9h38.7v-8.3H19.8V46.7c1.4,0.5,2.9,0.9,4.3,1.1c1.4,0.2,2.9,0.4,4.3,0.4
								c8.1,0,14.6-2.2,19.3-6.7c4.8-4.5,7.1-10.5,7.1-18.1c0-7.8-2.4-13.9-7.3-18.3c-4.9-4.3-11.8-6.5-20.7-6.5
								c-3.1,0-6.2,0.3-9.4,0.8c-3.2,0.5-6.4,1.3-9.8,2.3v9.9c2.9-1.6,6-2.8,9.1-3.6s6.4-1.2,9.9-1.2c5.6,0,10.1,1.5,13.4,4.4
								c3.3,3,4.9,7,4.9,12.1c0,5.1-1.6,9.1-4.9,12c-3.3,3-7.7,4.5-13.4,4.5c-2.6,0-5.3-0.3-7.9-0.9c-2.6-0.6-5.3-1.5-8-2.7V72.9z"
								/>
						</g>
						<g>
							<path id="DejaVuSans-48_00000060728493627165003980000013707384634788080051_" d="M95.4,66.4c-5.1,0-8.9-2.5-11.5-7.5
								c-2.6-5-3.8-12.5-3.8-22.5c0-10,1.3-17.5,3.8-22.5c2.6-5,6.4-7.5,11.5-7.5c5.1,0,8.9,2.5,11.5,7.5c2.6,5,3.8,12.5,3.8,22.5
								c0,10-1.3,17.5-3.8,22.5C104.4,63.9,100.5,66.4,95.4,66.4z M95.4,74.2c8.2,0,14.4-3.2,18.7-9.7c4.3-6.5,6.5-15.8,6.5-28.1
								c0-12.3-2.2-21.6-6.5-28.1c-4.3-6.5-10.6-9.7-18.7-9.7c-8.2,0-14.4,3.2-18.7,9.7c-4.3,6.5-6.5,15.8-6.5,28.1
								c0,12.3,2.2,21.7,6.5,28.1C81,71,87.2,74.2,95.4,74.2z"/>
						</g>
						<g>
							<path id="DejaVuSans-48_00000181802925454236115510000005113189153689028233_" d="M159,66.4c-5.1,0-8.9-2.5-11.5-7.5
								c-2.6-5-3.8-12.5-3.8-22.5c0-10,1.3-17.5,3.8-22.5c2.6-5,6.4-7.5,11.5-7.5c5.1,0,8.9,2.5,11.5,7.5c2.6,5,3.8,12.5,3.8,22.5
								c0,10-1.3,17.5-3.8,22.5C168,63.9,164.1,66.4,159,66.4z M159,74.2c8.2,0,14.4-3.2,18.7-9.7c4.3-6.5,6.5-15.8,6.5-28.1
								c0-12.3-2.2-21.6-6.5-28.1c-4.3-6.5-10.6-9.7-18.7-9.7c-8.2,0-14.4,3.2-18.7,9.7c-4.3,6.5-6.5,15.8-6.5,28.1
								c0,12.3,2.2,21.7,6.5,28.1C144.6,71,150.9,74.2,159,74.2z"/>
						</g>
						<g>
							<path id="DejaVuSans-48_00000183222416508724864050000017005397346959946913_" d="M222.7,66.4c-5.1,0-8.9-2.5-11.5-7.5
								c-2.6-5-3.8-12.5-3.8-22.5c0-10,1.3-17.5,3.8-22.5c2.6-5,6.4-7.5,11.5-7.5c5.1,0,8.9,2.5,11.5,7.5c2.6,5,3.8,12.5,3.8,22.5
								c0,10-1.3,17.5-3.8,22.5C231.6,63.9,227.8,66.4,222.7,66.4z M222.7,74.2c8.2,0,14.4-3.2,18.7-9.7c4.3-6.5,6.5-15.8,6.5-28.1
								c0-12.3-2.2-21.6-6.5-28.1c-4.3-6.5-10.6-9.7-18.7-9.7c-8.2,0-14.4,3.2-18.7,9.7c-4.3,6.5-6.5,15.8-6.5,28.1
								c0,12.3,2.2,21.7,6.5,28.1C208.2,71,214.5,74.2,222.7,74.2z"/>
						</g>
						<g>
							<path id="DejaVuSans-48_00000111185308879552351060000005013033032933355907_" d="M286.3,66.4c-5.1,0-8.9-2.5-11.5-7.5
								c-2.6-5-3.8-12.5-3.8-22.5c0-10,1.3-17.5,3.8-22.5c2.6-5,6.4-7.5,11.5-7.5c5.1,0,8.9,2.5,11.5,7.5c2.6,5,3.8,12.5,3.8,22.5
								c0,10-1.3,17.5-3.8,22.5C295.2,63.9,291.4,66.4,286.3,66.4z M286.3,74.2c8.2,0,14.4-3.2,18.7-9.7c4.3-6.5,6.5-15.8,6.5-28.1
								c0-12.3-2.2-21.6-6.5-28.1c-4.3-6.5-10.6-9.7-18.7-9.7c-8.2,0-14.4,3.2-18.7,9.7c-4.3,6.5-6.5,15.8-6.5,28.1
								c0,12.3,2.2,21.7,6.5,28.1C271.9,71,278.1,74.2,286.3,74.2z"/>
						</g>
						<g>
							<path id="DejaVuSans-48_00000076580741319896570040000000586740355928989356_" d="M349.9,66.4c-5.1,0-8.9-2.5-11.5-7.5
								c-2.6-5-3.8-12.5-3.8-22.5c0-10,1.3-17.5,3.8-22.5c2.6-5,6.4-7.5,11.5-7.5c5.1,0,8.9,2.5,11.5,7.5c2.6,5,3.8,12.5,3.8,22.5
								c0,10-1.3,17.5-3.8,22.5C358.8,63.9,355,66.4,349.9,66.4z M349.9,74.2c8.2,0,14.4-3.2,18.7-9.7c4.3-6.5,6.5-15.8,6.5-28.1
								c0-12.3-2.2-21.6-6.5-28.1c-4.3-6.5-10.6-9.7-18.7-9.7c-8.2,0-14.4,3.2-18.7,9.7c-4.3,6.5-6.5,15.8-6.5,28.1
								c0,12.3,2.2,21.7,6.5,28.1C335.5,71,341.7,74.2,349.9,74.2z"/>
						</g>
					</g>
				</g>
			</g>
			<g id="ytick_3">
				<g id="line2d_15">
					<g>
						<g>
							<path id="md26293d999_00000009568842005332709640000015421773636421217976_" class="st13" d="M90,154h-3.5"/>
						</g>
					</g>
				</g>
				<g id="text_15">
					<g transform="translate(38.4625 157.767924)scale(0.1 -0.1)">
						<g>
							<path id="DejaVuSans-49" d="M12.4,8.3h16.1v55.6L11,60.4v9l17.4,3.5h9.9V8.3h16.1V0h-42V8.3z"/>
						</g>
						<g>
							<path id="DejaVuSans-48_00000075145125819934069940000000443947347956155294_" d="M95.4,66.4c-5.1,0-8.9-2.5-11.5-7.5
								c-2.6-5-3.8-12.5-3.8-22.5c0-10,1.3-17.5,3.8-22.5c2.6-5,6.4-7.5,11.5-7.5c5.1,0,8.9,2.5,11.5,7.5c2.6,5,3.8,12.5,3.8,22.5
								c0,10-1.3,17.5-3.8,22.5C104.4,63.9,100.5,66.4,95.4,66.4z M95.4,74.2c8.2,0,14.4-3.2,18.7-9.7c4.3-6.5,6.5-15.8,6.5-28.1
								c0-12.3-2.2-21.6-6.5-28.1c-4.3-6.5-10.6-9.7-18.7-9.7c-8.2,0-14.4,3.2-18.7,9.7c-4.3,6.5-6.5,15.8-6.5,28.1
								c0,12.3,2.2,21.7,6.5,28.1C81,71,87.2,74.2,95.4,74.2z"/>
						</g>
						<g>
							<path id="DejaVuSans-48_00000168799045523655843480000016118817547651489936_" d="M159,66.4c-5.1,0-8.9-2.5-11.5-7.5
								c-2.6-5-3.8-12.5-3.8-22.5c0-10,1.3-17.5,3.8-22.5c2.6-5,6.4-7.5,11.5-7.5c5.1,0,8.9,2.5,11.5,7.5c2.6,5,3.8,12.5,3.8,22.5
								c0,10-1.3,17.5-3.8,22.5C168,63.9,164.1,66.4,159,66.4z M159,74.2c8.2,0,14.4-3.2,18.7-9.7c4.3-6.5,6.5-15.8,6.5-28.1
								c0-12.3-2.2-21.6-6.5-28.1c-4.3-6.5-10.6-9.7-18.7-9.7c-8.2,0-14.4,3.2-18.7,9.7c-4.3,6.5-6.5,15.8-6.5,28.1
								c0,12.3,2.2,21.7,6.5,28.1C144.6,71,150.9,74.2,159,74.2z"/>
						</g>
						<g>
							<path id="DejaVuSans-48_00000017502879116567972130000002630721504525629358_" d="M222.7,66.4c-5.1,0-8.9-2.5-11.5-7.5
								c-2.6-5-3.8-12.5-3.8-22.5c0-10,1.3-17.5,3.8-22.5c2.6-5,6.4-7.5,11.5-7.5c5.1,0,8.9,2.5,11.5,7.5c2.6,5,3.8,12.5,3.8,22.5
								c0,10-1.3,17.5-3.8,22.5C231.6,63.9,227.8,66.4,222.7,66.4z M222.7,74.2c8.2,0,14.4-3.2,18.7-9.7c4.3-6.5,6.5-15.8,6.5-28.1
								c0-12.3-2.2-21.6-6.5-28.1c-4.3-6.5-10.6-9.7-18.7-9.7c-8.2,0-14.4,3.2-18.7,9.7c-4.3,6.5-6.5,15.8-6.5,28.1
								c0,12.3,2.2,21.7,6.5,28.1C208.2,71,214.5,74.2,222.7,74.2z"/>
						</g>
						<g>
							<path id="DejaVuSans-48_00000041294802544239794450000015311445122726005122_" d="M286.3,66.4c-5.1,0-8.9-2.5-11.5-7.5
								c-2.6-5-3.8-12.5-3.8-22.5c0-10,1.3-17.5,3.8-22.5c2.6-5,6.4-7.5,11.5-7.5c5.1,0,8.9,2.5,11.5,7.5c2.6,5,3.8,12.5,3.8,22.5
								c0,10-1.3,17.5-3.8,22.5C295.2,63.9,291.4,66.4,286.3,66.4z M286.3,74.2c8.2,0,14.4-3.2,18.7-9.7c4.3-6.5,6.5-15.8,6.5-28.1
								c0-12.3-2.2-21.6-6.5-28.1c-4.3-6.5-10.6-9.7-18.7-9.7c-8.2,0-14.4,3.2-18.7,9.7c-4.3,6.5-6.5,15.8-6.5,28.1
								c0,12.3,2.2,21.7,6.5,28.1C271.9,71,278.1,74.2,286.3,74.2z"/>
						</g>
						<g>
							<path id="DejaVuSans-48_00000035509964805170205590000015663728877808828572_" d="M349.9,66.4c-5.1,0-8.9-2.5-11.5-7.5
								c-2.6-5-3.8-12.5-3.8-22.5c0-10,1.3-17.5,3.8-22.5c2.6-5,6.4-7.5,11.5-7.5c5.1,0,8.9,2.5,11.5,7.5c2.6,5,3.8,12.5,3.8,22.5
								c0,10-1.3,17.5-3.8,22.5C358.8,63.9,355,66.4,349.9,66.4z M349.9,74.2c8.2,0,14.4-3.2,18.7-9.7c4.3-6.5,6.5-15.8,6.5-28.1
								c0-12.3-2.2-21.6-6.5-28.1c-4.3-6.5-10.6-9.7-18.7-9.7c-8.2,0-14.4,3.2-18.7,9.7c-4.3,6.5-6.5,15.8-6.5,28.1
								c0,12.3,2.2,21.7,6.5,28.1C335.5,71,341.7,74.2,349.9,74.2z"/>
						</g>
						<g>
							<path id="DejaVuSans-48_00000183970697720620011540000011625311111685062814_" d="M413.5,66.4c-5.1,0-8.9-2.5-11.5-7.5
								c-2.6-5-3.8-12.5-3.8-22.5c0-10,1.3-17.5,3.8-22.5c2.6-5,6.4-7.5,11.5-7.5c5.1,0,8.9,2.5,11.5,7.5c2.6,5,3.8,12.5,3.8,22.5
								c0,10-1.3,17.5-3.8,22.5C422.5,63.9,418.6,66.4,413.5,66.4z M413.5,74.2c8.2,0,14.4-3.2,18.7-9.7c4.3-6.5,6.5-15.8,6.5-28.1
								c0-12.3-2.2-21.6-6.5-28.1c-4.3-6.5-10.6-9.7-18.7-9.7c-8.2,0-14.4,3.2-18.7,9.7c-4.3,6.5-6.5,15.8-6.5,28.1
								c0,12.3,2.2,21.7,6.5,28.1C399.1,71,405.4,74.2,413.5,74.2z"/>
						</g>
					</g>
				</g>
			</g>
			<g id="ytick_4">
				<g id="line2d_16">
					<g>
						<g>
							<path id="md26293d999_00000151522618758928881460000009257616591982511035_" class="st13" d="M90,130.2h-3.5"/>
						</g>
					</g>
				</g>
				<g id="text_16">
					<g transform="translate(38.4625 133.952277)scale(0.1 -0.1)">
						<g>
							<path id="DejaVuSans-49_00000145774328923515949880000002275913491135881110_" d="M12.4,8.3h16.1v55.6L11,60.4v9l17.4,3.5
								h9.9V8.3h16.1V0h-42V8.3z"/>
						</g>
						<g>
							<path id="DejaVuSans-53_00000080179355308562344780000011495140709795506607_" d="M74.4,72.9h38.7v-8.3H83.5V46.7
								c1.4,0.5,2.9,0.9,4.3,1.1c1.4,0.2,2.9,0.4,4.3,0.4c8.1,0,14.6-2.2,19.3-6.7c4.8-4.5,7.1-10.5,7.1-18.1
								c0-7.8-2.4-13.9-7.3-18.3c-4.9-4.3-11.8-6.5-20.7-6.5c-3.1,0-6.2,0.3-9.4,0.8c-3.2,0.5-6.4,1.3-9.8,2.3v9.9
								c2.9-1.6,6-2.8,9.1-3.6s6.4-1.2,9.9-1.2c5.6,0,10.1,1.5,13.4,4.4c3.3,3,4.9,7,4.9,12.1c0,5.1-1.6,9.1-4.9,12
								c-3.3,3-7.7,4.5-13.4,4.5c-2.6,0-5.3-0.3-7.9-0.9c-2.6-0.6-5.3-1.5-8-2.7V72.9z"/>
						</g>
						<g>
							<path id="DejaVuSans-48_00000101798145731810190770000007808582894384968124_" d="M159,66.4c-5.1,0-8.9-2.5-11.5-7.5
								c-2.6-5-3.8-12.5-3.8-22.5c0-10,1.3-17.5,3.8-22.5c2.6-5,6.4-7.5,11.5-7.5c5.1,0,8.9,2.5,11.5,7.5c2.6,5,3.8,12.5,3.8,22.5
								c0,10-1.3,17.5-3.8,22.5C168,63.9,164.1,66.4,159,66.4z M159,74.2c8.2,0,14.4-3.2,18.7-9.7c4.3-6.5,6.5-15.8,6.5-28.1
								c0-12.3-2.2-21.6-6.5-28.1c-4.3-6.5-10.6-9.7-18.7-9.7c-8.2,0-14.4,3.2-18.7,9.7c-4.3,6.5-6.5,15.8-6.5,28.1
								c0,12.3,2.2,21.7,6.5,28.1C144.6,71,150.9,74.2,159,74.2z"/>
						</g>
						<g>
							<path id="DejaVuSans-48_00000074410016244591852600000012646126909826702014_" d="M222.7,66.4c-5.1,0-8.9-2.5-11.5-7.5
								c-2.6-5-3.8-12.5-3.8-22.5c0-10,1.3-17.5,3.8-22.5c2.6-5,6.4-7.5,11.5-7.5c5.1,0,8.9,2.5,11.5,7.5c2.6,5,3.8,12.5,3.8,22.5
								c0,10-1.3,17.5-3.8,22.5C231.6,63.9,227.8,66.4,222.7,66.4z M222.7,74.2c8.2,0,14.4-3.2,18.7-9.7c4.3-6.5,6.5-15.8,6.5-28.1
								c0-12.3-2.2-21.6-6.5-28.1c-4.3-6.5-10.6-9.7-18.7-9.7c-8.2,0-14.4,3.2-18.7,9.7c-4.3,6.5-6.5,15.8-6.5,28.1
								c0,12.3,2.2,21.7,6.5,28.1C208.2,71,214.5,74.2,222.7,74.2z"/>
						</g>
						<g>
							<path id="DejaVuSans-48_00000029750485441861695250000013923550449838406274_" d="M286.3,66.4c-5.1,0-8.9-2.5-11.5-7.5
								c-2.6-5-3.8-12.5-3.8-22.5c0-10,1.3-17.5,3.8-22.5c2.6-5,6.4-7.5,11.5-7.5c5.1,0,8.9,2.5,11.5,7.5c2.6,5,3.8,12.5,3.8,22.5
								c0,10-1.3,17.5-3.8,22.5C295.2,63.9,291.4,66.4,286.3,66.4z M286.3,74.2c8.2,0,14.4-3.2,18.7-9.7c4.3-6.5,6.5-15.8,6.5-28.1
								c0-12.3-2.2-21.6-6.5-28.1c-4.3-6.5-10.6-9.7-18.7-9.7c-8.2,0-14.4,3.2-18.7,9.7c-4.3,6.5-6.5,15.8-6.5,28.1
								c0,12.3,2.2,21.7,6.5,28.1C271.9,71,278.1,74.2,286.3,74.2z"/>
						</g>
						<g>
							<path id="DejaVuSans-48_00000040576743106968521900000009859898508106328727_" d="M349.9,66.4c-5.1,0-8.9-2.5-11.5-7.5
								c-2.6-5-3.8-12.5-3.8-22.5c0-10,1.3-17.5,3.8-22.5c2.6-5,6.4-7.5,11.5-7.5c5.1,0,8.9,2.5,11.5,7.5c2.6,5,3.8,12.5,3.8,22.5
								c0,10-1.3,17.5-3.8,22.5C358.8,63.9,355,66.4,349.9,66.4z M349.9,74.2c8.2,0,14.4-3.2,18.7-9.7c4.3-6.5,6.5-15.8,6.5-28.1
								c0-12.3-2.2-21.6-6.5-28.1c-4.3-6.5-10.6-9.7-18.7-9.7c-8.2,0-14.4,3.2-18.7,9.7c-4.3,6.5-6.5,15.8-6.5,28.1
								c0,12.3,2.2,21.7,6.5,28.1C335.5,71,341.7,74.2,349.9,74.2z"/>
						</g>
						<g>
							<path id="DejaVuSans-48_00000128473581070407133600000008257993618318228886_" d="M413.5,66.4c-5.1,0-8.9-2.5-11.5-7.5
								c-2.6-5-3.8-12.5-3.8-22.5c0-10,1.3-17.5,3.8-22.5c2.6-5,6.4-7.5,11.5-7.5c5.1,0,8.9,2.5,11.5,7.5c2.6,5,3.8,12.5,3.8,22.5
								c0,10-1.3,17.5-3.8,22.5C422.5,63.9,418.6,66.4,413.5,66.4z M413.5,74.2c8.2,0,14.4-3.2,18.7-9.7c4.3-6.5,6.5-15.8,6.5-28.1
								c0-12.3-2.2-21.6-6.5-28.1c-4.3-6.5-10.6-9.7-18.7-9.7c-8.2,0-14.4,3.2-18.7,9.7c-4.3,6.5-6.5,15.8-6.5,28.1
								c0,12.3,2.2,21.7,6.5,28.1C399.1,71,405.4,74.2,413.5,74.2z"/>
						</g>
					</g>
				</g>
			</g>
			<g id="ytick_5">
				<g id="line2d_17">
					<g>
						<g>
							<path id="md26293d999_00000050655359750893872270000012388356444666040234_" class="st13" d="M90,106.3h-3.5"/>
						</g>
					</g>
				</g>
				<g id="text_17">
					<g transform="translate(38.4625 110.136629)scale(0.1 -0.1)">
						<g>
							<path id="DejaVuSans-50" d="M19.2,8.3h34.4V0H7.3v8.3c3.7,3.9,8.8,9.1,15.3,15.6c6.5,6.5,10.5,10.7,12.2,12.6
								c3.2,3.5,5.4,6.5,6.6,9c1.3,2.5,1.9,4.9,1.9,7.2c0,3.9-1.4,7-4.1,9.5c-2.7,2.4-6.3,3.7-10.6,3.7c-3.1,0-6.4-0.5-9.8-1.6
								c-3.4-1.1-7.1-2.7-11-4.9v10c4,1.6,7.7,2.8,11.1,3.6c3.5,0.8,6.6,1.2,9.5,1.2c7.6,0,13.6-1.9,18.1-5.7
								c4.5-3.8,6.7-8.8,6.7-15.1c0-3-0.6-5.8-1.7-8.5c-1.1-2.7-3.2-5.8-6.1-9.5c-0.8-0.9-3.4-3.7-7.8-8.2
								C33.3,22.7,27.1,16.4,19.2,8.3z"/>
						</g>
						<g>
							<path id="DejaVuSans-48_00000158007914806602487080000012094679025827914412_" d="M95.4,66.4c-5.1,0-8.9-2.5-11.5-7.5
								c-2.6-5-3.8-12.5-3.8-22.5c0-10,1.3-17.5,3.8-22.5c2.6-5,6.4-7.5,11.5-7.5c5.1,0,8.9,2.5,11.5,7.5c2.6,5,3.8,12.5,3.8,22.5
								c0,10-1.3,17.5-3.8,22.5C104.4,63.9,100.5,66.4,95.4,66.4z M95.4,74.2c8.2,0,14.4-3.2,18.7-9.7c4.3-6.5,6.5-15.8,6.5-28.1
								c0-12.3-2.2-21.6-6.5-28.1c-4.3-6.5-10.6-9.7-18.7-9.7c-8.2,0-14.4,3.2-18.7,9.7c-4.3,6.5-6.5,15.8-6.5,28.1
								c0,12.3,2.2,21.7,6.5,28.1C81,71,87.2,74.2,95.4,74.2z"/>
						</g>
						<g>
							<path id="DejaVuSans-48_00000052824569520066410070000008144873267393105087_" d="M159,66.4c-5.1,0-8.9-2.5-11.5-7.5
								c-2.6-5-3.8-12.5-3.8-22.5c0-10,1.3-17.5,3.8-22.5c2.6-5,6.4-7.5,11.5-7.5c5.1,0,8.9,2.5,11.5,7.5c2.6,5,3.8,12.5,3.8,22.5
								c0,10-1.3,17.5-3.8,22.5C168,63.9,164.1,66.4,159,66.4z M159,74.2c8.2,0,14.4-3.2,18.7-9.7c4.3-6.5,6.5-15.8,6.5-28.1
								c0-12.3-2.2-21.6-6.5-28.1c-4.3-6.5-10.6-9.7-18.7-9.7c-8.2,0-14.4,3.2-18.7,9.7c-4.3,6.5-6.5,15.8-6.5,28.1
								c0,12.3,2.2,21.7,6.5,28.1C144.6,71,150.9,74.2,159,74.2z"/>
						</g>
						<g>
							<path id="DejaVuSans-48_00000176735404403009545730000007112547180360577166_" d="M222.7,66.4c-5.1,0-8.9-2.5-11.5-7.5
								c-2.6-5-3.8-12.5-3.8-22.5c0-10,1.3-17.5,3.8-22.5c2.6-5,6.4-7.5,11.5-7.5c5.1,0,8.9,2.5,11.5,7.5c2.6,5,3.8,12.5,3.8,22.5
								c0,10-1.3,17.5-3.8,22.5C231.6,63.9,227.8,66.4,222.7,66.4z M222.7,74.2c8.2,0,14.4-3.2,18.7-9.7c4.3-6.5,6.5-15.8,6.5-28.1
								c0-12.3-2.2-21.6-6.5-28.1c-4.3-6.5-10.6-9.7-18.7-9.7c-8.2,0-14.4,3.2-18.7,9.7c-4.3,6.5-6.5,15.8-6.5,28.1
								c0,12.3,2.2,21.7,6.5,28.1C208.2,71,214.5,74.2,222.7,74.2z"/>
						</g>
						<g>
							<path id="DejaVuSans-48_00000027594377431372989850000004649531261503495845_" d="M286.3,66.4c-5.1,0-8.9-2.5-11.5-7.5
								c-2.6-5-3.8-12.5-3.8-22.5c0-10,1.3-17.5,3.8-22.5c2.6-5,6.4-7.5,11.5-7.5c5.1,0,8.9,2.5,11.5,7.5c2.6,5,3.8,12.5,3.8,22.5
								c0,10-1.3,17.5-3.8,22.5C295.2,63.9,291.4,66.4,286.3,66.4z M286.3,74.2c8.2,0,14.4-3.2,18.7-9.7c4.3-6.5,6.5-15.8,6.5-28.1
								c0-12.3-2.2-21.6-6.5-28.1c-4.3-6.5-10.6-9.7-18.7-9.7c-8.2,0-14.4,3.2-18.7,9.7c-4.3,6.5-6.5,15.8-6.5,28.1
								c0,12.3,2.2,21.7,6.5,28.1C271.9,71,278.1,74.2,286.3,74.2z"/>
						</g>
						<g>
							<path id="DejaVuSans-48_00000024699671075027954070000016390171846839526288_" d="M349.9,66.4c-5.1,0-8.9-2.5-11.5-7.5
								c-2.6-5-3.8-12.5-3.8-22.5c0-10,1.3-17.5,3.8-22.5c2.6-5,6.4-7.5,11.5-7.5c5.1,0,8.9,2.5,11.5,7.5c2.6,5,3.8,12.5,3.8,22.5
								c0,10-1.3,17.5-3.8,22.5C358.8,63.9,355,66.4,349.9,66.4z M349.9,74.2c8.2,0,14.4-3.2,18.7-9.7c4.3-6.5,6.5-15.8,6.5-28.1
								c0-12.3-2.2-21.6-6.5-28.1c-4.3-6.5-10.6-9.7-18.7-9.7c-8.2,0-14.4,3.2-18.7,9.7c-4.3,6.5-6.5,15.8-6.5,28.1
								c0,12.3,2.2,21.7,6.5,28.1C335.5,71,341.7,74.2,349.9,74.2z"/>
						</g>
						<g>
							<path id="DejaVuSans-48_00000042701230091312229720000010289435326258072232_" d="M413.5,66.4c-5.1,0-8.9-2.5-11.5-7.5
								c-2.6-5-3.8-12.5-3.8-22.5c0-10,1.3-17.5,3.8-22.5c2.6-5,6.4-7.5,11.5-7.5c5.1,0,8.9,2.5,11.5,7.5c2.6,5,3.8,12.5,3.8,22.5
								c0,10-1.3,17.5-3.8,22.5C422.5,63.9,418.6,66.4,413.5,66.4z M413.5,74.2c8.2,0,14.4-3.2,18.7-9.7c4.3-6.5,6.5-15.8,6.5-28.1
								c0-12.3-2.2-21.6-6.5-28.1c-4.3-6.5-10.6-9.7-18.7-9.7c-8.2,0-14.4,3.2-18.7,9.7c-4.3,6.5-6.5,15.8-6.5,28.1
								c0,12.3,2.2,21.7,6.5,28.1C399.1,71,405.4,74.2,413.5,74.2z"/>
						</g>
					</g>
				</g>
			</g>
			<g id="ytick_6">
				<g id="line2d_18">
					<g>
						<g>
							<path id="md26293d999_00000075867991773583560400000015437402353786214315_" class="st13" d="M90,82.5h-3.5"/>
						</g>
					</g>
				</g>
				<g id="text_18">
					<g transform="translate(38.4625 86.320982)scale(0.1 -0.1)">
						<g>
							<path id="DejaVuSans-50_00000163789868602655048170000011836546240721396119_" d="M19.2,8.3h34.4V0H7.3v8.3
								c3.7,3.9,8.8,9.1,15.3,15.6c6.5,6.5,10.5,10.7,12.2,12.6c3.2,3.5,5.4,6.5,6.6,9c1.3,2.5,1.9,4.9,1.9,7.3c0,3.9-1.4,7-4.1,9.5
								c-2.7,2.4-6.3,3.7-10.6,3.7c-3.1,0-6.4-0.5-9.8-1.6c-3.4-1.1-7.1-2.7-11-4.9v10c4,1.6,7.7,2.8,11.1,3.6
								c3.5,0.8,6.6,1.2,9.5,1.2c7.6,0,13.6-1.9,18.1-5.7c4.5-3.8,6.7-8.8,6.7-15.1c0-3-0.6-5.8-1.7-8.5c-1.1-2.7-3.2-5.8-6.1-9.5
								c-0.8-0.9-3.4-3.7-7.8-8.2C33.3,22.7,27.1,16.4,19.2,8.3z"/>
						</g>
						<g>
							<path id="DejaVuSans-53_00000117653347564734396930000008623516611483849616_" d="M74.4,72.9h38.7v-8.3H83.5V46.7
								c1.4,0.5,2.9,0.9,4.3,1.1c1.4,0.2,2.9,0.4,4.3,0.4c8.1,0,14.6-2.2,19.3-6.7c4.8-4.5,7.1-10.5,7.1-18.1
								c0-7.8-2.4-13.9-7.3-18.3c-4.9-4.3-11.8-6.5-20.7-6.5c-3.1,0-6.2,0.3-9.4,0.8c-3.2,0.5-6.4,1.3-9.8,2.3v9.9
								c2.9-1.6,6-2.8,9.1-3.6s6.4-1.2,9.9-1.2c5.6,0,10.1,1.5,13.4,4.4c3.3,3,4.9,7,4.9,12.1c0,5.1-1.6,9.1-4.9,12
								c-3.3,3-7.7,4.5-13.4,4.5c-2.6,0-5.3-0.3-7.9-0.9c-2.6-0.6-5.3-1.5-8-2.7V72.9z"/>
						</g>
						<g>
							<path id="DejaVuSans-48_00000008123746547285010440000013350025680547784844_" d="M159,66.4c-5.1,0-8.9-2.5-11.5-7.5
								c-2.6-5-3.8-12.5-3.8-22.5c0-10,1.3-17.5,3.8-22.5c2.6-5,6.4-7.5,11.5-7.5c5.1,0,8.9,2.5,11.5,7.5c2.6,5,3.8,12.5,3.8,22.5
								c0,10-1.3,17.5-3.8,22.5C168,63.9,164.1,66.4,159,66.4z M159,74.2c8.2,0,14.4-3.2,18.7-9.7c4.3-6.5,6.5-15.8,6.5-28.1
								c0-12.3-2.2-21.6-6.5-28.1c-4.3-6.5-10.6-9.7-18.7-9.7c-8.2,0-14.4,3.2-18.7,9.7c-4.3,6.5-6.5,15.8-6.5,28.1
								c0,12.3,2.2,21.7,6.5,28.1C144.6,71,150.9,74.2,159,74.2z"/>
						</g>
						<g>
							<path id="DejaVuSans-48_00000126317023523683125240000005133067549677911983_" d="M222.7,66.4c-5.1,0-8.9-2.5-11.5-7.5
								c-2.6-5-3.8-12.5-3.8-22.5c0-10,1.3-17.5,3.8-22.5c2.6-5,6.4-7.5,11.5-7.5c5.1,0,8.9,2.5,11.5,7.5c2.6,5,3.8,12.5,3.8,22.5
								c0,10-1.3,17.5-3.8,22.5C231.6,63.9,227.8,66.4,222.7,66.4z M222.7,74.2c8.2,0,14.4-3.2,18.7-9.7c4.3-6.5,6.5-15.8,6.5-28.1
								c0-12.3-2.2-21.6-6.5-28.1c-4.3-6.5-10.6-9.7-18.7-9.7c-8.2,0-14.4,3.2-18.7,9.7c-4.3,6.5-6.5,15.8-6.5,28.1
								c0,12.3,2.2,21.7,6.5,28.1C208.2,71,214.5,74.2,222.7,74.2z"/>
						</g>
						<g>
							<path id="DejaVuSans-48_00000058567087650833482530000007726391399710725251_" d="M286.3,66.4c-5.1,0-8.9-2.5-11.5-7.5
								c-2.6-5-3.8-12.5-3.8-22.5c0-10,1.3-17.5,3.8-22.5c2.6-5,6.4-7.5,11.5-7.5c5.1,0,8.9,2.5,11.5,7.5c2.6,5,3.8,12.5,3.8,22.5
								c0,10-1.3,17.5-3.8,22.5C295.2,63.9,291.4,66.4,286.3,66.4z M286.3,74.2c8.2,0,14.4-3.2,18.7-9.7c4.3-6.5,6.5-15.8,6.5-28.1
								c0-12.3-2.2-21.6-6.5-28.1c-4.3-6.5-10.6-9.7-18.7-9.7c-8.2,0-14.4,3.2-18.7,9.7c-4.3,6.5-6.5,15.8-6.5,28.1
								c0,12.3,2.2,21.7,6.5,28.1C271.9,71,278.1,74.2,286.3,74.2z"/>
						</g>
						<g>
							<path id="DejaVuSans-48_00000120549730029217069360000000565720475442660784_" d="M349.9,66.4c-5.1,0-8.9-2.5-11.5-7.5
								c-2.6-5-3.8-12.5-3.8-22.5c0-10,1.3-17.5,3.8-22.5c2.6-5,6.4-7.5,11.5-7.5c5.1,0,8.9,2.5,11.5,7.5c2.6,5,3.8,12.5,3.8,22.5
								c0,10-1.3,17.5-3.8,22.5C358.8,63.9,355,66.4,349.9,66.4z M349.9,74.2c8.2,0,14.4-3.2,18.7-9.7c4.3-6.5,6.5-15.8,6.5-28.1
								c0-12.3-2.2-21.6-6.5-28.1c-4.3-6.5-10.6-9.7-18.7-9.7c-8.2,0-14.4,3.2-18.7,9.7c-4.3,6.5-6.5,15.8-6.5,28.1
								c0,12.3,2.2,21.7,6.5,28.1C335.5,71,341.7,74.2,349.9,74.2z"/>
						</g>
						<g>
							<path id="DejaVuSans-48_00000175291522575974593820000012191878491118743939_" d="M413.5,66.4c-5.1,0-8.9-2.5-11.5-7.5
								c-2.6-5-3.8-12.5-3.8-22.5c0-10,1.3-17.5,3.8-22.5c2.6-5,6.4-7.5,11.5-7.5c5.1,0,8.9,2.5,11.5,7.5c2.6,5,3.8,12.5,3.8,22.5
								c0,10-1.3,17.5-3.8,22.5C422.5,63.9,418.6,66.4,413.5,66.4z M413.5,74.2c8.2,0,14.4-3.2,18.7-9.7c4.3-6.5,6.5-15.8,6.5-28.1
								c0-12.3-2.2-21.6-6.5-28.1c-4.3-6.5-10.6-9.7-18.7-9.7c-8.2,0-14.4,3.2-18.7,9.7c-4.3,6.5-6.5,15.8-6.5,28.1
								c0,12.3,2.2,21.7,6.5,28.1C399.1,71,405.4,74.2,413.5,74.2z"/>
						</g>
					</g>
				</g>
			</g>
			<g id="ytick_7">
				<g id="line2d_19">
					<g>
						<g>
							<path id="md26293d999_00000130647523530174055810000002751826482874665344_" class="st13" d="M90,58.7h-3.5"/>
						</g>
					</g>
				</g>
				<g id="text_19">
					<g transform="translate(38.4625 62.505334)scale(0.1 -0.1)">
						<g>
							<path id="DejaVuSans-51" d="M40.6,39.3c4.7-1,8.4-3.1,11-6.3c2.7-3.2,4-7.1,4-11.8c0-7.2-2.5-12.8-7.4-16.7
								c-4.9-3.9-12-5.9-21.1-5.9c-3.1,0-6.2,0.3-9.4,0.9S11.1,1,7.6,2.2v9.5c2.7-1.6,5.7-2.8,9-3.6c3.3-0.8,6.7-1.2,10.2-1.2
								c6.2,0,10.9,1.2,14.1,3.7s4.9,6,4.9,10.6c0,4.3-1.5,7.7-4.5,10.1c-3,2.4-7.2,3.6-12.6,3.6h-8.5V43h8.9c4.8,0,8.6,1,11.1,2.9
								s3.9,4.7,3.9,8.4c0,3.7-1.3,6.6-4,8.6c-2.6,2-6.4,3-11.4,3c-2.7,0-5.6-0.3-8.7-0.9c-3.1-0.6-6.5-1.5-10.2-2.7v8.8
								c3.8,1,7.3,1.8,10.5,2.3s6.4,0.8,9.2,0.8c7.5,0,13.4-1.7,17.8-5.1c4.4-3.4,6.5-8,6.5-13.8c0-4-1.2-7.5-3.5-10.2
								S44.8,40.4,40.6,39.3z"/>
						</g>
						<g>
							<path id="DejaVuSans-48_00000150800112799821264320000014912443987905057702_" d="M95.4,66.4c-5.1,0-8.9-2.5-11.5-7.5
								c-2.6-5-3.8-12.5-3.8-22.5c0-10,1.3-17.5,3.8-22.5c2.6-5,6.4-7.5,11.5-7.5c5.1,0,8.9,2.5,11.5,7.5c2.6,5,3.8,12.5,3.8,22.5
								c0,10-1.3,17.5-3.8,22.5C104.4,63.9,100.5,66.4,95.4,66.4z M95.4,74.2c8.2,0,14.4-3.2,18.7-9.7c4.3-6.5,6.5-15.8,6.5-28.1
								c0-12.3-2.2-21.6-6.5-28.1c-4.3-6.5-10.6-9.7-18.7-9.7c-8.2,0-14.4,3.2-18.7,9.7c-4.3,6.5-6.5,15.8-6.5,28.1
								c0,12.3,2.2,21.7,6.5,28.1C81,71,87.2,74.2,95.4,74.2z"/>
						</g>
						<g>
							<path id="DejaVuSans-48_00000052093935887346214070000011627726403035601049_" d="M159,66.4c-5.1,0-8.9-2.5-11.5-7.5
								c-2.6-5-3.8-12.5-3.8-22.5c0-10,1.3-17.5,3.8-22.5c2.6-5,6.4-7.5,11.5-7.5c5.1,0,8.9,2.5,11.5,7.5c2.6,5,3.8,12.5,3.8,22.5
								c0,10-1.3,17.5-3.8,22.5C168,63.9,164.1,66.4,159,66.4z M159,74.2c8.2,0,14.4-3.2,18.7-9.7c4.3-6.5,6.5-15.8,6.5-28.1
								c0-12.3-2.2-21.6-6.5-28.1c-4.3-6.5-10.6-9.7-18.7-9.7c-8.2,0-14.4,3.2-18.7,9.7c-4.3,6.5-6.5,15.8-6.5,28.1
								c0,12.3,2.2,21.7,6.5,28.1C144.6,71,150.9,74.2,159,74.2z"/>
						</g>
						<g>
							<path id="DejaVuSans-48_00000014635939384049857260000004224339408675566522_" d="M222.7,66.4c-5.1,0-8.9-2.5-11.5-7.5
								c-2.6-5-3.8-12.5-3.8-22.5c0-10,1.3-17.5,3.8-22.5c2.6-5,6.4-7.5,11.5-7.5c5.1,0,8.9,2.5,11.5,7.5c2.6,5,3.8,12.5,3.8,22.5
								c0,10-1.3,17.5-3.8,22.5C231.6,63.9,227.8,66.4,222.7,66.4z M222.7,74.2c8.2,0,14.4-3.2,18.7-9.7c4.3-6.5,6.5-15.8,6.5-28.1
								c0-12.3-2.2-21.6-6.5-28.1c-4.3-6.5-10.6-9.7-18.7-9.7c-8.2,0-14.4,3.2-18.7,9.7c-4.3,6.5-6.5,15.8-6.5,28.1
								c0,12.3,2.2,21.7,6.5,28.1C208.2,71,214.5,74.2,222.7,74.2z"/>
						</g>
						<g>
							<path id="DejaVuSans-48_00000067197344559237751540000007271005934891241119_" d="M286.3,66.4c-5.1,0-8.9-2.5-11.5-7.5
								c-2.6-5-3.8-12.5-3.8-22.5c0-10,1.3-17.5,3.8-22.5c2.6-5,6.4-7.5,11.5-7.5c5.1,0,8.9,2.5,11.5,7.5c2.6,5,3.8,12.5,3.8,22.5
								c0,10-1.3,17.5-3.8,22.5C295.2,63.9,291.4,66.4,286.3,66.4z M286.3,74.2c8.2,0,14.4-3.2,18.7-9.7c4.3-6.5,6.5-15.8,6.5-28.1
								c0-12.3-2.2-21.6-6.5-28.1c-4.3-6.5-10.6-9.7-18.7-9.7c-8.2,0-14.4,3.2-18.7,9.7c-4.3,6.5-6.5,15.8-6.5,28.1
								c0,12.3,2.2,21.7,6.5,28.1C271.9,71,278.1,74.2,286.3,74.2z"/>
						</g>
						<g>
							<path id="DejaVuSans-48_00000152973080515754888690000003712330925590193821_" d="M349.9,66.4c-5.1,0-8.9-2.5-11.5-7.5
								c-2.6-5-3.8-12.5-3.8-22.5c0-10,1.3-17.5,3.8-22.5c2.6-5,6.4-7.5,11.5-7.5c5.1,0,8.9,2.5,11.5,7.5c2.6,5,3.8,12.5,3.8,22.5
								c0,10-1.3,17.5-3.8,22.5C358.8,63.9,355,66.4,349.9,66.4z M349.9,74.2c8.2,0,14.4-3.2,18.7-9.7c4.3-6.5,6.5-15.8,6.5-28.1
								c0-12.3-2.2-21.6-6.5-28.1c-4.3-6.5-10.6-9.7-18.7-9.7c-8.2,0-14.4,3.2-18.7,9.7c-4.3,6.5-6.5,15.8-6.5,28.1
								c0,12.3,2.2,21.7,6.5,28.1C335.5,71,341.7,74.2,349.9,74.2z"/>
						</g>
						<g>
							<path id="DejaVuSans-48_00000144319113335495360600000002174658247468588172_" d="M413.5,66.4c-5.1,0-8.9-2.5-11.5-7.5
								c-2.6-5-3.8-12.5-3.8-22.5c0-10,1.3-17.5,3.8-22.5c2.6-5,6.4-7.5,11.5-7.5c5.1,0,8.9,2.5,11.5,7.5c2.6,5,3.8,12.5,3.8,22.5
								c0,10-1.3,17.5-3.8,22.5C422.5,63.9,418.6,66.4,413.5,66.4z M413.5,74.2c8.2,0,14.4-3.2,18.7-9.7c4.3-6.5,6.5-15.8,6.5-28.1
								c0-12.3-2.2-21.6-6.5-28.1c-4.3-6.5-10.6-9.7-18.7-9.7c-8.2,0-14.4,3.2-18.7,9.7c-4.3,6.5-6.5,15.8-6.5,28.1
								c0,12.3,2.2,21.7,6.5,28.1C399.1,71,405.4,74.2,413.5,74.2z"/>
						</g>
					</g>
				</g>
			</g>
			<g id="ytick_8">
				<g id="line2d_20">
					<g>
						<g>
							<path id="md26293d999_00000182522749828792158370000003620510331180387762_" class="st13" d="M90,34.9h-3.5"/>
						</g>
					</g>
				</g>
				<g id="text_20">
					<g transform="translate(38.4625 38.689687)scale(0.1 -0.1)">
						<g>
							<path id="DejaVuSans-51_00000029732906674089506400000005566862928541543339_" d="M40.6,39.3c4.7-1,8.4-3.1,11-6.3
								c2.7-3.2,4-7.1,4-11.8c0-7.2-2.5-12.8-7.4-16.7c-4.9-3.9-12-5.9-21.1-5.9c-3.1,0-6.2,0.3-9.4,0.9S11.1,1,7.6,2.2v9.5
								c2.7-1.6,5.7-2.8,9-3.6c3.3-0.8,6.7-1.2,10.2-1.2c6.2,0,10.9,1.2,14.1,3.7s4.9,6,4.9,10.6c0,4.3-1.5,7.7-4.5,10.1
								c-3,2.4-7.2,3.6-12.6,3.6h-8.5V43h8.9c4.8,0,8.6,1,11.1,2.9s3.9,4.7,3.9,8.4c0,3.7-1.3,6.6-4,8.6c-2.6,2-6.4,3-11.4,3
								c-2.7,0-5.6-0.3-8.7-0.9c-3.1-0.6-6.5-1.5-10.2-2.7v8.8c3.8,1,7.3,1.8,10.5,2.3s6.4,0.8,9.2,0.8c7.5,0,13.4-1.7,17.8-5.1
								c4.4-3.4,6.5-8,6.5-13.8c0-4-1.2-7.5-3.5-10.2S44.8,40.4,40.6,39.3z"/>
						</g>
						<g>
							<path id="DejaVuSans-53_00000145755312091605572780000000539238806196418974_" d="M74.4,72.9h38.7v-8.3H83.5V46.7
								c1.4,0.5,2.9,0.9,4.3,1.1c1.4,0.2,2.9,0.4,4.3,0.4c8.1,0,14.6-2.2,19.3-6.7c4.8-4.5,7.1-10.5,7.1-18.1
								c0-7.8-2.4-13.9-7.3-18.3c-4.9-4.3-11.8-6.5-20.7-6.5c-3.1,0-6.2,0.3-9.4,0.8c-3.2,0.5-6.4,1.3-9.8,2.3v9.9
								c2.9-1.6,6-2.8,9.1-3.6s6.4-1.2,9.9-1.2c5.6,0,10.1,1.5,13.4,4.4c3.3,3,4.9,7,4.9,12.1c0,5.1-1.6,9.1-4.9,12
								c-3.3,3-7.7,4.5-13.4,4.5c-2.6,0-5.3-0.3-7.9-0.9c-2.6-0.6-5.3-1.5-8-2.7V72.9z"/>
						</g>
						<g>
							<path id="DejaVuSans-48_00000089553822384304440960000005181543051478781844_" d="M159,66.4c-5.1,0-8.9-2.5-11.5-7.5
								c-2.6-5-3.8-12.5-3.8-22.5c0-10,1.3-17.5,3.8-22.5c2.6-5,6.4-7.5,11.5-7.5c5.1,0,8.9,2.5,11.5,7.5c2.6,5,3.8,12.5,3.8,22.5
								c0,10-1.3,17.5-3.8,22.5C168,63.9,164.1,66.4,159,66.4z M159,74.2c8.2,0,14.4-3.2,18.7-9.7c4.3-6.5,6.5-15.8,6.5-28.1
								c0-12.3-2.2-21.6-6.5-28.1c-4.3-6.5-10.6-9.7-18.7-9.7c-8.2,0-14.4,3.2-18.7,9.7c-4.3,6.5-6.5,15.8-6.5,28.1
								c0,12.3,2.2,21.7,6.5,28.1C144.6,71,150.9,74.2,159,74.2z"/>
						</g>
						<g>
							<path id="DejaVuSans-48_00000170969275519146864450000001347463992868187533_" d="M222.7,66.4c-5.1,0-8.9-2.5-11.5-7.5
								c-2.6-5-3.8-12.5-3.8-22.5c0-10,1.3-17.5,3.8-22.5c2.6-5,6.4-7.5,11.5-7.5c5.1,0,8.9,2.5,11.5,7.5c2.6,5,3.8,12.5,3.8,22.5
								c0,10-1.3,17.5-3.8,22.5C231.6,63.9,227.8,66.4,222.7,66.4z M222.7,74.2c8.2,0,14.4-3.2,18.7-9.7c4.3-6.5,6.5-15.8,6.5-28.1
								c0-12.3-2.2-21.6-6.5-28.1c-4.3-6.5-10.6-9.7-18.7-9.7c-8.2,0-14.4,3.2-18.7,9.7c-4.3,6.5-6.5,15.8-6.5,28.1
								c0,12.3,2.2,21.7,6.5,28.1C208.2,71,214.5,74.2,222.7,74.2z"/>
						</g>
						<g>
							<path id="DejaVuSans-48_00000113354240535300283470000000645275291175904686_" d="M286.3,66.4c-5.1,0-8.9-2.5-11.5-7.5
								c-2.6-5-3.8-12.5-3.8-22.5c0-10,1.3-17.5,3.8-22.5c2.6-5,6.4-7.5,11.5-7.5c5.1,0,8.9,2.5,11.5,7.5c2.6,5,3.8,12.5,3.8,22.5
								c0,10-1.3,17.5-3.8,22.5C295.2,63.9,291.4,66.4,286.3,66.4z M286.3,74.2c8.2,0,14.4-3.2,18.7-9.7c4.3-6.5,6.5-15.8,6.5-28.1
								c0-12.3-2.2-21.6-6.5-28.1c-4.3-6.5-10.6-9.7-18.7-9.7c-8.2,0-14.4,3.2-18.7,9.7c-4.3,6.5-6.5,15.8-6.5,28.1
								c0,12.3,2.2,21.7,6.5,28.1C271.9,71,278.1,74.2,286.3,74.2z"/>
						</g>
						<g>
							<path id="DejaVuSans-48_00000069396444103684125390000014101478911593475245_" d="M349.9,66.4c-5.1,0-8.9-2.5-11.5-7.5
								c-2.6-5-3.8-12.5-3.8-22.5c0-10,1.3-17.5,3.8-22.5c2.6-5,6.4-7.5,11.5-7.5c5.1,0,8.9,2.5,11.5,7.5c2.6,5,3.8,12.5,3.8,22.5
								c0,10-1.3,17.5-3.8,22.5C358.8,63.9,355,66.4,349.9,66.4z M349.9,74.2c8.2,0,14.4-3.2,18.7-9.7c4.3-6.5,6.5-15.8,6.5-28.1
								c0-12.3-2.2-21.6-6.5-28.1c-4.3-6.5-10.6-9.7-18.7-9.7c-8.2,0-14.4,3.2-18.7,9.7c-4.3,6.5-6.5,15.8-6.5,28.1
								c0,12.3,2.2,21.7,6.5,28.1C335.5,71,341.7,74.2,349.9,74.2z"/>
						</g>
						<g>
							<path id="DejaVuSans-48_00000102531189401447760190000015762489215678678943_" d="M413.5,66.4c-5.1,0-8.9-2.5-11.5-7.5
								c-2.6-5-3.8-12.5-3.8-22.5c0-10,1.3-17.5,3.8-22.5c2.6-5,6.4-7.5,11.5-7.5c5.1,0,8.9,2.5,11.5,7.5c2.6,5,3.8,12.5,3.8,22.5
								c0,10-1.3,17.5-3.8,22.5C422.5,63.9,418.6,66.4,413.5,66.4z M413.5,74.2c8.2,0,14.4-3.2,18.7-9.7c4.3-6.5,6.5-15.8,6.5-28.1
								c0-12.3-2.2-21.6-6.5-28.1c-4.3-6.5-10.6-9.7-18.7-9.7c-8.2,0-14.4,3.2-18.7,9.7c-4.3,6.5-6.5,15.8-6.5,28.1
								c0,12.3,2.2,21.7,6.5,28.1C399.1,71,405.4,74.2,413.5,74.2z"/>
						</g>
					</g>
				</g>
			</g>
		</g>
		<g id="patch_15">
			<path class="st14" d="M90,201.6v-167"/>
		</g>
		<g id="patch_16">
			<path class="st14" d="M648,201.6v-167"/>
		</g>
		<g id="patch_17">
			<path class="st14" d="M90,201.6h558"/>
		</g>
		<g id="patch_18">
			<path class="st14" d="M90,34.6h558"/>
		</g>
		<g id="text_21">
			<g transform="translate(284.631562 28.56)scale(0.12 -0.12)">
				<g>
					<path id="DejaVuSans-80" d="M19.7,64.8V37.4h12.4c4.6,0,8.1,1.2,10.6,3.6c2.5,2.4,3.8,5.8,3.8,10.2c0,4.4-1.3,7.7-3.8,10.1
						c-2.5,2.4-6,3.6-10.6,3.6H19.7z M9.8,72.9h22.3c8.2,0,14.4-1.8,18.5-5.5c4.2-3.7,6.3-9.1,6.3-16.2c0-7.2-2.1-12.6-6.3-16.3
						c-4.2-3.7-10.4-5.5-18.5-5.5H19.7V0H9.8V72.9z"/>
				</g>
				<g>
					<path id="DejaVuSans-111_00000016052046415450555810000016302473883838496665_" d="M87.3,48.4c-4.8,0-8.6-1.9-11.4-5.6
						s-4.2-8.9-4.2-15.5s1.4-11.7,4.2-15.5c2.8-3.8,6.6-5.6,11.5-5.6c4.8,0,8.6,1.9,11.4,5.7c2.8,3.8,4.2,8.9,4.2,15.4
						c0,6.5-1.4,11.6-4.2,15.4C95.9,46.5,92.1,48.4,87.3,48.4z M87.3,56c7.8,0,13.9-2.5,18.4-7.6c4.5-5.1,6.7-12.1,6.7-21.1
						c0-8.9-2.2-16-6.7-21.1c-4.5-5.1-10.6-7.6-18.4-7.6c-7.8,0-14,2.5-18.4,7.6c-4.4,5.1-6.7,12.1-6.7,21.1c0,9,2.2,16,6.7,21.1
						C73.3,53.5,79.4,56,87.3,56z"/>
				</g>
				<g>
					<path id="DejaVuSans-112" d="M136,8.2v-29h-9v75.5h9v-8.3c1.9,3.2,4.3,5.7,7.2,7.2c2.9,1.6,6.3,2.4,10.3,2.4
						c6.6,0,12-2.6,16.2-7.9c4.2-5.3,6.2-12.2,6.2-20.8s-2.1-15.5-6.2-20.8c-4.1-5.3-9.5-7.9-16.2-7.9c-4,0-7.4,0.8-10.3,2.4
						C140.2,2.5,137.9,5,136,8.2z M166.5,27.3c0,6.6-1.4,11.8-4.1,15.5s-6.5,5.6-11.2,5.6c-4.8,0-8.5-1.9-11.2-5.6
						s-4.1-8.9-4.1-15.5s1.4-11.8,4.1-15.5s6.5-5.6,11.2-5.6c4.8,0,8.5,1.9,11.2,5.6S166.5,20.7,166.5,27.3z"/>
				</g>
				<g>
					<path id="DejaVuSans-117_00000075122955659401322410000011074807693163869069_" d="M189.8,21.6v33.1h9V21.9c0-5.2,1-9.1,3-11.7
						c2-2.6,5.1-3.9,9.1-3.9c4.8,0,8.7,1.5,11.5,4.6c2.8,3.1,4.2,7.3,4.2,12.7v31h9V0h-9v8.4c-2.2-3.3-4.7-5.8-7.6-7.4
						c-2.9-1.6-6.2-2.4-10-2.4c-6.3,0-11.1,2-14.3,5.9C191.5,8.3,189.8,14.1,189.8,21.6z"/>
				</g>
				<g>
					<path id="DejaVuSans-108_00000083089222065444854530000012885281664592889528_" d="M254.1,76h9V0h-9V76z"/>
				</g>
				<g>
					<path id="DejaVuSans-97_00000039817869332022184060000015516523462396375968_" d="M306.8,27.5c-7.3,0-12.3-0.8-15.1-2.5
						s-4.2-4.5-4.2-8.5c0-3.2,1.1-5.7,3.2-7.6c2.1-1.9,5-2.8,8.6-2.8c5,0,9,1.8,12,5.3c3,3.5,4.5,8.2,4.5,14.1v2H306.8z M324.7,31.2
						V0h-9v8.3C313.7,5,311.1,2.5,308,1s-6.8-2.4-11.2-2.4c-5.6,0-10,1.6-13.4,4.7c-3.3,3.1-5,7.4-5,12.6c0,6.1,2.1,10.8,6.2,13.9
						c4.1,3.1,10.3,4.7,18.4,4.7h12.6v0.9c0,4.1-1.4,7.3-4.1,9.6s-6.5,3.4-11.5,3.4c-3.1,0-6.2-0.4-9.1-1.1c-3-0.8-5.8-1.9-8.5-3.4
						v8.3c3.3,1.3,6.5,2.2,9.6,2.8c3.1,0.6,6.1,1,9,1c7.9,0,13.8-2.1,17.7-6.2C322.7,45.7,324.7,39.5,324.7,31.2z"/>
				</g>
				<g>
					<path id="DejaVuSans-116_00000021105685689004979830000004559266070516580536_" d="M352.1,70.2V54.7h18.5v-7h-18.5V18
						c0-4.5,0.6-7.3,1.8-8.6s3.7-1.9,7.5-1.9h9.2V0h-9.2c-6.9,0-11.7,1.3-14.4,3.9c-2.6,2.6-4,7.3-4,14.1v29.7h-6.6v7h6.6v15.5
						H352.1z"/>
				</g>
				<g>
					<path id="DejaVuSans-105_00000088840855906918332630000002601405308288638094_" d="M382.4,54.7h9V0h-9V54.7z M382.4,76h9V64.6
						h-9V76z"/>
				</g>
				<g>
					<path id="DejaVuSans-111_00000139279972260025740310000002779385011027552652_" d="M431.4,48.4c-4.8,0-8.6-1.9-11.4-5.6
						c-2.8-3.8-4.2-8.9-4.2-15.5s1.4-11.7,4.2-15.5c2.8-3.8,6.6-5.6,11.5-5.6c4.8,0,8.6,1.9,11.4,5.7c2.8,3.8,4.2,8.9,4.2,15.4
						c0,6.5-1.4,11.6-4.2,15.4C440,46.5,436.2,48.4,431.4,48.4z M431.4,56c7.8,0,13.9-2.5,18.4-7.6c4.5-5.1,6.7-12.1,6.7-21.1
						c0-8.9-2.2-16-6.7-21.1c-4.5-5.1-10.6-7.6-18.4-7.6c-7.8,0-14,2.5-18.4,7.6c-4.4,5.1-6.7,12.1-6.7,21.1c0,9,2.2,16,6.7,21.1
						C417.4,53.5,423.5,56,431.4,56z"/>
				</g>
				<g>
					<path id="DejaVuSans-110_00000146490617085514471000000007767573173395343241_" d="M516.8,33V0h-9v32.7c0,5.2-1,9-3,11.6
						c-2,2.6-5,3.9-9.1,3.9c-4.9,0-8.7-1.5-11.5-4.6c-2.8-3.1-4.2-7.3-4.2-12.6V0h-9v54.7h9v-8.5c2.2,3.3,4.7,5.8,7.6,7.4
						c2.9,1.6,6.3,2.4,10.1,2.4c6.3,0,11-1.9,14.2-5.8C515.2,46.3,516.8,40.6,516.8,33z"/>
				</g>
				<g>
					<path id="DejaVuSans-32" d="M525.3,0"/>
				</g>
				<g>
					<path id="DejaVuSans-115_00000155853918632571523210000007012426159372724392_" d="M601.4,53.1v-8.5c-2.5,1.3-5.2,2.3-7.9,2.9
						c-2.7,0.7-5.6,1-8.5,1c-4.5,0-7.8-0.7-10-2c-2.2-1.4-3.3-3.4-3.3-6.2c0-2.1,0.8-3.7,2.4-4.9s4.8-2.3,9.6-3.4l3.1-0.7
						c6.4-1.4,10.9-3.3,13.6-5.8s4-6,4-10.4c0-5.1-2-9.1-6-12.1c-4-3-9.5-4.4-16.6-4.4c-2.9,0-6,0.3-9.2,0.9s-6.5,1.4-10,2.6v9.3
						c3.3-1.7,6.6-3,9.8-3.9c3.2-0.9,6.4-1.3,9.6-1.3c4.2,0,7.5,0.7,9.8,2.2c2.3,1.4,3.4,3.5,3.4,6.1c0,2.4-0.8,4.3-2.5,5.6
						c-1.6,1.3-5.2,2.6-10.8,3.8l-3.1,0.7c-5.6,1.2-9.6,3-12.1,5.4c-2.5,2.4-3.7,5.8-3.7,10c0,5.1,1.8,9.1,5.5,11.9
						c3.6,2.8,8.8,4.2,15.5,4.2c3.3,0,6.4-0.2,9.4-0.7C596.2,54.8,598.9,54.1,601.4,53.1z"/>
				</g>
				<g>
					<path id="DejaVuSans-105_00000114064883712220080610000018204829455593999490_" d="M618.6,54.7h9V0h-9V54.7z M618.6,76h9V64.6
						h-9V76z"/>
				</g>
				<g>
					<path id="DejaVuSans-122" d="M642.5,54.7h42.7v-8.2L651.4,7.2h33.8V0h-43.9v8.2l33.8,39.3h-32.6V54.7z"/>
				</g>
				<g>
					<path id="DejaVuSans-101_00000003093015400618359560000012139468989039119284_" d="M745.7,29.6v-4.4h-41.3
						c0.4-6.2,2.3-10.9,5.6-14.1c3.3-3.2,8-4.9,13.9-4.9c3.4,0,6.8,0.4,10,1.3c3.2,0.8,6.5,2.1,9.7,3.8V2.8
						c-3.2-1.4-6.5-2.4-9.9-3.1c-3.4-0.7-6.8-1.1-10.3-1.1c-8.7,0-15.6,2.5-20.7,7.6c-5.1,5.1-7.6,12-7.6,20.6
						c0,8.9,2.4,16,7.2,21.3c4.8,5.3,11.4,7.9,19.6,7.9c7.4,0,13.2-2.4,17.5-7.1C743.6,44.2,745.7,37.7,745.7,29.6z M736.7,32.2
						c-0.1,4.9-1.4,8.8-4.1,11.8c-2.7,2.9-6.2,4.4-10.7,4.4c-5,0-9-1.4-12-4.2c-3-2.8-4.7-6.8-5.2-12L736.7,32.2z"/>
				</g>
				<g>
					<path id="DejaVuSans-32_00000114032545366789892790000014900927344879739552_" d="M751,0"/>
				</g>
				<g>
					<path id="DejaVuSans-112_00000041994542569293457840000007607420226204327579_" d="M800.9,8.2v-29h-9v75.5h9v-8.3
						c1.9,3.2,4.3,5.7,7.2,7.2c2.9,1.6,6.3,2.4,10.3,2.4c6.6,0,12-2.6,16.2-7.9c4.2-5.3,6.2-12.2,6.2-20.8s-2.1-15.5-6.2-20.8
						c-4.1-5.3-9.5-7.9-16.2-7.9c-4,0-7.4,0.8-10.3,2.4C805.2,2.5,802.8,5,800.9,8.2z M831.5,27.3c0,6.6-1.4,11.8-4.1,15.5
						s-6.5,5.6-11.2,5.6c-4.8,0-8.5-1.9-11.2-5.6s-4.1-8.9-4.1-15.5s1.4-11.8,4.1-15.5s6.5-5.6,11.2-5.6c4.8,0,8.5,1.9,11.2,5.6
						S831.5,20.7,831.5,27.3z"/>
				</g>
				<g>
					<path id="DejaVuSans-101_00000031928527102453515660000016307378644450406546_" d="M902.5,29.6v-4.4h-41.3
						c0.4-6.2,2.3-10.9,5.6-14.1c3.3-3.2,8-4.9,13.9-4.9c3.4,0,6.8,0.4,10,1.3c3.2,0.8,6.5,2.1,9.7,3.8V2.8
						c-3.2-1.4-6.5-2.4-9.9-3.1c-3.4-0.7-6.8-1.1-10.3-1.1c-8.7,0-15.6,2.5-20.7,7.6c-5.1,5.1-7.6,12-7.6,20.6
						c0,8.9,2.4,16,7.2,21.3c4.8,5.3,11.4,7.9,19.6,7.9c7.4,0,13.2-2.4,17.5-7.1C900.3,44.2,902.5,37.7,902.5,29.6z M893.5,32.2
						c-0.1,4.9-1.4,8.8-4.1,11.8c-2.7,2.9-6.2,4.4-10.7,4.4c-5,0-9-1.4-12-4.2c-3-2.8-4.7-6.8-5.2-12L893.5,32.2z"/>
				</g>
				<g>
					<path id="DejaVuSans-114_00000054253561803758094990000004969282718401246877_" d="M948.9,46.3c-1,0.6-2.1,1-3.3,1.3
						c-1.2,0.3-2.5,0.4-3.9,0.4c-5.1,0-9-1.7-11.7-5s-4.1-8-4.1-14.2V0h-9v54.7h9v-8.5c1.9,3.3,4.4,5.8,7.4,7.4
						c3,1.6,6.7,2.4,11,2.4c0.6,0,1.3,0,2-0.1c0.8-0.1,1.6-0.2,2.5-0.4L948.9,46.3z"/>
				</g>
				<g>
					<path id="DejaVuSans-32_00000074434754945024649540000000855273424054647971_" d="M948.9,0"/>
				</g>
				<g>
					<path id="DejaVuSans-80_00000173140103916725029020000016563922517846984344_" d="M1000.4,64.8V37.4h12.4
						c4.6,0,8.1,1.2,10.6,3.6c2.5,2.4,3.8,5.8,3.8,10.2c0,4.4-1.3,7.7-3.8,10.1c-2.5,2.4-6,3.6-10.6,3.6H1000.4z M990.5,72.9h22.3
						c8.2,0,14.4-1.8,18.5-5.5c4.2-3.7,6.3-9.1,6.3-16.2c0-7.2-2.1-12.6-6.3-16.3c-4.2-3.7-10.4-5.5-18.5-5.5h-12.4V0h-9.9V72.9z"/>
				</g>
				<g>
					<path id="DejaVuSans-114_00000058555006681502861720000011459466316190413218_" d="M1080.4,46.3c-1,0.6-2.1,1-3.3,1.3
						c-1.2,0.3-2.5,0.4-3.9,0.4c-5.1,0-9-1.7-11.7-5s-4.1-8-4.1-14.2V0h-9v54.7h9v-8.5c1.9,3.3,4.4,5.8,7.4,7.4
						c3,1.6,6.7,2.4,11,2.4c0.6,0,1.3,0,2-0.1c0.8-0.1,1.6-0.2,2.5-0.4L1080.4,46.3z"/>
				</g>
				<g>
					<path id="DejaVuSans-111_00000106838813799380304500000005298210063861138083_" d="M1108.7,48.4c-4.8,0-8.6-1.9-11.4-5.6
						c-2.8-3.8-4.2-8.9-4.2-15.5s1.4-11.7,4.2-15.5c2.8-3.8,6.6-5.6,11.5-5.6c4.8,0,8.6,1.9,11.4,5.7c2.8,3.8,4.2,8.9,4.2,15.4
						c0,6.5-1.4,11.6-4.2,15.4C1117.3,46.5,1113.5,48.4,1108.7,48.4z M1108.7,56c7.8,0,13.9-2.5,18.4-7.6c4.5-5.1,6.7-12.1,6.7-21.1
						c0-8.9-2.2-16-6.7-21.1c-4.5-5.1-10.6-7.6-18.4-7.6c-7.8,0-14,2.5-18.4,7.6c-4.4,5.1-6.7,12.1-6.7,21.1c0,9,2.2,16,6.7,21.1
						C1094.7,53.5,1100.9,56,1108.7,56z"/>
				</g>
				<g>
					<path id="DejaVuSans-118_00000123434352430814888790000013703743353468640915_" d="M1142.3,54.7h9.5l17.1-45.9l17.1,45.9h9.5
						L1175,0h-12.2L1142.3,54.7z"/>
				</g>
				<g>
					<path id="DejaVuSans-105_00000183242419624952235200000005955493476736528521_" d="M1207.9,54.7h9V0h-9V54.7z M1207.9,76h9
						V64.6h-9V76z"/>
				</g>
				<g>
					<path id="DejaVuSans-110_00000075164461607228861320000014759329234591747740_" d="M1281.2,33V0h-9v32.7c0,5.2-1,9-3,11.6
						c-2,2.6-5,3.9-9.1,3.9c-4.9,0-8.7-1.5-11.5-4.6c-2.8-3.1-4.2-7.3-4.2-12.6V0h-9v54.7h9v-8.5c2.2,3.3,4.7,5.8,7.6,7.4
						c2.9,1.6,6.3,2.4,10.1,2.4c6.3,0,11-1.9,14.2-5.8C1279.5,46.3,1281.2,40.6,1281.2,33z"/>
				</g>
				<g>
					<path id="DejaVuSans-99_00000073714659745465723480000014353669724290414470_" d="M1338.4,52.6v-8.4c-2.5,1.4-5.1,2.5-7.6,3.2
						c-2.6,0.7-5.1,1-7.7,1c-5.8,0-10.4-1.8-13.6-5.5c-3.2-3.7-4.8-8.9-4.8-15.5s1.6-11.9,4.8-15.6c3.2-3.7,7.8-5.5,13.6-5.5
						c2.6,0,5.2,0.3,7.7,1c2.6,0.7,5.1,1.8,7.6,3.2V2.1c-2.5-1.2-5.1-2-7.8-2.6c-2.7-0.6-5.5-0.9-8.6-0.9c-8.2,0-14.8,2.6-19.6,7.8
						c-4.8,5.2-7.3,12.2-7.3,21c0,8.9,2.4,15.9,7.3,21c4.9,5.1,11.6,7.7,20.2,7.7c2.8,0,5.5-0.3,8.1-0.9
						C1333.4,54.6,1335.9,53.7,1338.4,52.6z"/>
				</g>
				<g>
					<path id="DejaVuSans-101_00000031888696454071025960000007134820211188011669_" d="M1400.8,29.6v-4.4h-41.3
						c0.4-6.2,2.3-10.9,5.6-14.1c3.3-3.2,8-4.9,13.9-4.9c3.4,0,6.8,0.4,10,1.3c3.2,0.8,6.5,2.1,9.7,3.8V2.8
						c-3.2-1.4-6.5-2.4-9.9-3.1c-3.4-0.7-6.8-1.1-10.3-1.1c-8.7,0-15.6,2.5-20.7,7.6c-5.1,5.1-7.6,12-7.6,20.6
						c0,8.9,2.4,16,7.2,21.3c4.8,5.3,11.4,7.9,19.6,7.9c7.4,0,13.2-2.4,17.5-7.1C1398.7,44.2,1400.8,37.7,1400.8,29.6z M1391.8,32.2
						c-0.1,4.9-1.4,8.8-4.1,11.8c-2.7,2.9-6.2,4.4-10.7,4.4c-5,0-9-1.4-12-4.2c-3-2.8-4.7-6.8-5.2-12L1391.8,32.2z"/>
				</g>
			</g>
		</g>
	</g>
</g>
</svg>
